<svg id="Layer_1" enable-background="new 0 0 512 512" viewBox="0 0 512 512" xmlns="http://www.w3.org/2000/svg"><path d="m69 239v-7.4c0-7.2-5.9-13.1-13.1-13.1h-6.3c-7.2 0-13.1 5.9-13.1 13.1v7.4c-2.8.9-4.8 3.4-4.8 6.5v11.1h-10.6c-7.8 0-14.1 6.4-14.1 14.1v37.7c0 3.8 3 6.8 6.8 6.8s6.8-3 6.8-6.8v-37.7c0-.2.2-.5.5-.5h10.5v164.8c0 2.1.9 3.9 2.4 5.2l12 27.2c1.1 2.4 3.5 4 6.2 4.1h.1c2.6 0 5-1.5 6.2-3.9l12.8-27.3c1.5-1.2 2.5-3.1 2.5-5.3v-189.4c0-3.1-2.1-5.7-4.8-6.6zm-23.7 13.4h14.9v26h-14.9zm0 175.8v-136.2h14.9v136.3h-14.9zm10-196v6.6h-5.3v-6.6zm-5.7 209.7h5.8l-3 6.4zm221.4-113.1c.1 0 .1 0 0 0 .3.2.5.3.8.4.2.1.5.2.7.3h.2c.2.1.4.1.6.1h.2c.3 0 .5.1.8.1.3 0 .5 0 .8-.1h.2c.2 0 .4-.1.6-.1.1 0 .1 0 .2-.1.2-.1.5-.1.7-.2h.1c.3-.1.5-.2.8-.4l35.3-20.4 35.4-20.4c2.1-1.2 3.4-3.5 3.4-5.9v-81.7s0 0 0-.1c0-.3 0-.6-.1-.8 0 0 0 0 0-.1 0-.2-.1-.5-.1-.7 0-.1 0-.1-.1-.2-.1-.2-.1-.4-.2-.6 0-.1-.1-.1-.1-.2-.1-.2-.2-.5-.3-.7-.1-.2-.3-.4-.4-.6 0-.1-.1-.1-.1-.2-.1-.2-.3-.3-.4-.5 0-.1-.1-.1-.2-.2-.2-.2-.4-.3-.6-.5-.2-.2-.5-.3-.7-.5 0 0 0 0-.1 0l-35.4-20.4-35.3-20.4c-2.1-1.2-4.7-1.2-6.8 0l-35.4 20.4-35.4 20.4c-2.1 1.2-3.4 3.5-3.4 5.9v81.7c0 2.4 1.3 4.7 3.4 5.9l35.4 20.4zm35.4-32.2-25.2 14.5-.2-65.8 57.4-33.1v66zm-32-129.2 31.9 18.5 25.1 14.5-57.4 33.1-57.3-32.8zm-63.9 45.3 56.9 32.6.2 65.8-57.1-32.9zm-21.7-79.3c0 3.8-3 6.8-6.8 6.8h-31.1v31.1c0 3.8-3 6.8-6.8 6.8s-6.8-3-6.8-6.8v-37.9c0-3.8 3-6.8 6.8-6.8h37.9c3.8 0 6.8 3 6.8 6.8zm171.3 0c0-3.8 3-6.8 6.8-6.8h37.9c3.8 0 6.8 3 6.8 6.8v37.9c0 3.8-3 6.8-6.8 6.8s-6.8-3-6.8-6.8v-31.1h-31c-3.9 0-6.9-3-6.9-6.8zm-171.3 215.7c0 3.8-3 6.8-6.8 6.8h-37.9c-3.8 0-6.8-3-6.8-6.8v-37.9c0-3.8 3-6.8 6.8-6.8s6.8 3 6.8 6.8v31.1h31.1c3.8 0 6.8 3 6.8 6.8zm171.3 0c0-3.8 3-6.8 6.8-6.8h31v-31.1c0-3.8 3-6.8 6.8-6.8s6.8 3 6.8 6.8v37.9c0 3.8-3 6.8-6.8 6.8h-37.9c-3.7 0-6.7-3.1-6.7-6.8zm138.1-143.7h-34.8v-112.4c0-1.8-.7-3.5-2-4.8l-75.3-75.2c-1.3-1.3-3-2-4.8-2h-259.7c-19.9 0-36.1 16.2-36.1 36.2v388.2c0 19.9 16.2 36.2 36.1 36.2h87.7v22.7c0 3.8 3 6.8 6.8 6.8h282.1c3.8 0 6.8-3 6.8-6.8v-282.1c0-3.8-3.1-6.8-6.8-6.8zm-110.1-171.2 52 52h-29.5c-12.4 0-22.6-10.1-22.6-22.6v-29.4zm-266.5 423.7c-12.4 0-22.5-10.1-22.5-22.6v-388.2c0-12.4 10.1-22.6 22.5-22.6h252.9v39.1c0 19.9 16.2 36.2 36.2 36.2h39.1v105.5h-10.1c-3.8 0-6.8 3-6.8 6.8v216.8h-216.8c-3.8 0-6.8 3-6.8 6.8v22.1h-87.7zm354.1 29.5v-14.3c0-3.8-3-6.8-6.8-6.8s-6.8 3-6.8 6.8v14.3h-14.3v-14.3c0-3.8-3-6.8-6.8-6.8s-6.8 3-6.8 6.8v14.3h-14.3v-14.3c0-3.8-3-6.8-6.8-6.8s-6.8 3-6.8 6.8v14.3h-14.3v-14.3c0-3.8-3-6.8-6.8-6.8s-6.8 3-6.8 6.8v14.3h-14.4v-14.3c0-3.8-3-6.8-6.8-6.8s-6.8 3-6.8 6.8v14.3h-14.4v-14.3c0-3.8-3-6.8-6.8-6.8s-6.8 3-6.8 6.8v14.3h-14.3v-14.3c0-3.8-3-6.8-6.8-6.8s-6.8 3-6.8 6.8v14.3h-14.3v-14.3c0-3.8-3-6.8-6.8-6.8s-6.8 3-6.8 6.8v14.3h-14.3v-14.3c0-3.8-3-6.8-6.8-6.8s-6.8 3-6.8 6.8v14.3h-15.7v-44.9h216.8c3.8 0 6.8-3 6.8-6.8v-216.7h44.9v16.3h-14.3c-3.8 0-6.8 3-6.8 6.8s3 6.8 6.8 6.8h14.3v14.3h-14.3c-3.8 0-6.8 3-6.8 6.8s3 6.8 6.8 6.8h14.3v14.3h-14.3c-3.8 0-6.8 3-6.8 6.8s3 6.8 6.8 6.8h14.3v14.3h-14.3c-3.8 0-6.8 3-6.8 6.8s3 6.8 6.8 6.8h14.3v14.4h-14.3c-3.8 0-6.8 3-6.8 6.8s3 6.8 6.8 6.8h14.3v14.3h-14.3c-3.8 0-6.8 3-6.8 6.8s3 6.8 6.8 6.8h14.3v14.3h-14.3c-3.8 0-6.8 3-6.8 6.8s3 6.8 6.8 6.8h14.3v14.3h-14.3c-3.8 0-6.8 3-6.8 6.8s3 6.8 6.8 6.8h14.3v43.1z"/></svg>