<?xml version="1.0" encoding="UTF-8" standalone="no"?>
<!-- Created with Inkscape (http://www.inkscape.org/) -->

<svg
   width="793.70087"
   height="1122.5197"
   viewBox="0 0 210.00002 296.99999"
   version="1.1"
   id="svg1"
   xmlns="http://www.w3.org/2000/svg"
   xmlns:svg="http://www.w3.org/2000/svg">
  <defs
     id="defs1" />
  <g
     id="layer1"
     transform="translate(-103.7957,-130.66046)">
    <g
       id="g1"
       transform="matrix(4.2603981,0,0,3.0239459,-338.32161,-274.49143)">
      <path
         id="polygon1"
         style="fill:#ffffff;stroke-width:0.0315766"
         class="st0"
         d="m 106.65877,140.95908 v -0.34974 h -1.90068 l 0.3143,0.34974 z" />
      <path
         id="polygon2"
         style="fill:#ffffff;stroke-width:0.0315766"
         class="st0"
         d="m 106.65877,141.89725 v -0.34972 h -1.90068 l 0.3143,0.34972 z" />
      <path
         id="polygon3"
         style="fill:#ffffff;stroke-width:0.0315766"
         class="st0"
         d="M 106.65877,139.07935 V 138.733 h -1.90068 l 0.3143,0.34635 z" />
      <path
         id="polygon4"
         style="fill:#ffffff;stroke-width:0.0315766"
         class="st0"
         d="m 106.65877,140.0209 v -0.34973 h -1.90068 l 0.3143,0.34973 z" />
      <path
         id="polygon5"
         style="fill:#ffffff;stroke-width:0.0315766"
         class="st0"
         d="m 106.65877,138.14119 v -0.34637 h -1.90068 l 0.3143,0.34637 z" />
      <path
         class="st0"
         d="m 107.13911,144.35532 h -2.41068 v -7.04134 h 1.93328 v -0.39343 h -2.2802 v 7.83158 h 2.70423 l 0.0104,8.8e-4 5.21574,1.25426 v -10.5822 l -5.17128,1.47618 z m 2.54413,-7.65669 2.17644,-0.6221 v 4.60681 h -2.17644 z m 0,4.19655 h 2.17644 v 4.48576 l -2.17644,-0.52459 z m -2.09639,-3.59464 1.91254,-0.54476 v 3.93428 h -1.91254 z m 0,3.59464 h 1.91254 v 3.91748 l -1.91254,-0.46071 z"
         id="path5"
         style="fill:#ffffff;stroke-width:0.0315766" />
      <path
         id="polygon6"
         style="fill:#ffffff;stroke-width:0.0315766"
         class="st0"
         d="m 106.65877,143.7736 v -0.3497 h -1.90068 l 0.3143,0.3497 z" />
      <path
         id="polygon7"
         style="fill:#ffffff;stroke-width:0.0315766"
         class="st0"
         d="m 106.65877,142.83541 v -0.34972 h -1.90068 l 0.3143,0.34972 z" />
      <path
         id="polygon8"
         style="fill:#ffffff;stroke-width:0.0315766"
         class="st0"
         d="m 112.8619,140.95908 h 1.79689 l 0.4181,-0.46069 h -2.21499 z" />
      <path
         id="polygon9"
         style="fill:#ffffff;stroke-width:0.0315766"
         class="st0"
         d="m 112.8619,142.09563 h 1.79689 l 0.4181,-0.46402 h -2.21499 z" />
      <path
         id="polygon10"
         style="fill:#ffffff;stroke-width:0.0315766"
         class="st0"
         d="m 112.8619,143.22885 h 1.79689 l 0.4181,-0.46067 h -2.21499 z" />
      <path
         id="polygon11"
         style="fill:#ffffff;stroke-width:0.0315766"
         class="st0"
         d="m 112.8619,137.55272 h 1.79689 l 0.4181,-0.46067 h -2.21499 z" />
      <path
         id="polygon12"
         style="fill:#ffffff;stroke-width:0.0315766"
         class="st0"
         d="m 112.8619,139.82249 h 1.79689 l 0.4181,-0.46067 h -2.21499 z" />
      <path
         id="polygon13"
         style="fill:#ffffff;stroke-width:0.0315766"
         class="st0"
         d="m 112.8619,138.6893 h 1.79689 l 0.4181,-0.46069 h -2.21499 z" />
      <path
         id="polygon14"
         style="fill:#ffffff;stroke-width:0.0315766"
         class="st0"
         d="m 112.8619,144.36539 h 1.79689 l 0.4181,-0.46065 h -2.21499 z" />
      <path
         id="polygon15"
         style="fill:#ffffff;stroke-width:0.0315766"
         class="st0"
         d="m 115.10951,145.09174 h -2.24761 v 0.39345 h 2.59453 v -9.38848 h -2.96222 v 0.39342 h 2.6153 z" />
      <path
         class="st0"
         d="m 125.53862,144.00593 c -0.3269,0 -0.55323,-0.24614 -0.57334,-0.53818 l 0.19618,-0.0516 c 0.009,0.2289 0.17105,0.36641 0.38223,0.36641 0.21626,0 0.36713,-0.14896 0.36713,-0.35497 0,-0.18321 -0.10555,-0.27482 -0.40235,-0.35496 -0.36209,-0.0975 -0.48281,-0.25764 -0.48281,-0.49812 0,-0.30914 0.24141,-0.53244 0.53814,-0.53244 0.30177,0 0.49287,0.20605 0.52808,0.46376 l -0.19618,0.0516 c -0.0302,-0.18321 -0.16593,-0.29198 -0.34199,-0.29198 -0.19107,0 -0.3269,0.12594 -0.3269,0.29771 0,0.14895 0.0957,0.2289 0.37215,0.30342 0.38224,0.10893 0.51302,0.28056 0.51302,0.5611 0.006,0.33779 -0.24644,0.57824 -0.57336,0.57824 z"
         id="path15"
         style="fill:#ffffff;stroke-width:0.0536604" />
      <path
         class="st0"
         d="m 128.61154,143.98303 v -0.88167 h -0.86002 v 0.88167 h -0.20117 v -1.91224 h 0.20117 v 0.82447 h 0.86002 v -0.82447 h 0.20118 v 1.91224 z"
         id="path16"
         style="fill:#ffffff;stroke-width:0.0536604" />
      <path
         class="st0"
         d="m 130.98035,144.00593 c -0.35706,0 -0.65881,-0.30343 -0.65881,-0.79008 v -1.14506 h 0.20116 v 1.12787 c 0,0.36071 0.19109,0.58973 0.45765,0.58973 0.26657,0 0.45769,-0.22889 0.45769,-0.58973 v -1.12787 h 0.20117 v 1.14506 c 0,0.48665 -0.30175,0.79008 -0.65886,0.79008 z"
         id="path17"
         style="fill:#ffffff;stroke-width:0.0536604" />
      <path
         class="st0"
         d="m 133.63586,142.2769 v 1.70613 h -0.20118 v -1.70613 h -0.48281 v -0.20605 h 1.16679 v 0.20605 z"
         id="path18"
         style="fill:#ffffff;stroke-width:0.0536604" />
      <path
         class="st0"
         d="m 135.93427,142.2769 v 1.70613 h -0.2012 v -1.70613 h -0.48281 v -0.20605 h 1.16681 v 0.20605 z"
         id="path19"
         style="fill:#ffffff;stroke-width:0.0536604" />
      <path
         class="st0"
         d="m 137.73477,143.98303 v -1.91224 h 0.99077 v 0.20607 h -0.78959 v 0.63549 h 0.75943 v 0.20606 h -0.75943 v 0.65839 h 0.78959 v 0.20606 z"
         id="path20"
         style="fill:#ffffff;stroke-width:0.0536604" />
      <path
         class="st0"
         d="m 141.18993,143.98303 -0.72927,-0.99619 h 0.25145 c 0.21126,0 0.35712,-0.14314 0.35712,-0.35496 0,-0.21748 -0.14592,-0.35498 -0.35712,-0.35498 h -0.3269 v 1.70613 h -0.20117 v -1.91224 h 0.54821 c 0.34201,0 0.54317,0.24616 0.54317,0.56109 0,0.2977 -0.19108,0.52672 -0.43755,0.52672 l 0.60853,0.82443 z"
         id="path21"
         style="fill:#ffffff;stroke-width:0.0536604" />
      <path
         class="st0"
         d="m 143.1765,144.00593 c -0.32691,0 -0.55322,-0.24614 -0.57334,-0.53818 l 0.19617,-0.0516 c 0.009,0.2289 0.17106,0.36641 0.38225,0.36641 0.21627,0 0.36712,-0.14896 0.36712,-0.35497 0,-0.18321 -0.10556,-0.27482 -0.40233,-0.35496 -0.3621,-0.0975 -0.48281,-0.25764 -0.48281,-0.49812 0,-0.30914 0.24141,-0.53244 0.53814,-0.53244 0.30174,0 0.49288,0.20605 0.52808,0.46376 l -0.19618,0.0516 c -0.0302,-0.18321 -0.16593,-0.29198 -0.34201,-0.29198 -0.19108,0 -0.32689,0.12594 -0.32689,0.29771 0,0.14895 0.0957,0.2289 0.37215,0.30342 0.38222,0.10893 0.513,0.28056 0.513,0.5611 0.006,0.33779 -0.24644,0.57824 -0.57335,0.57824 z"
         id="path22"
         style="fill:#ffffff;stroke-width:0.0536604" />
      <path
         class="st0"
         d="m 120.21945,138.01408 c 0.24845,-0.10946 0.412,-0.404 0.412,-0.75511 0,-0.3549 -0.16669,-0.96654 -0.87428,-0.96654 h -1.05039 v 3.62071 h 1.05039 c 0.75162,0 0.95917,-0.61541 0.95917,-1.03448 0,-0.41908 -0.18555,-0.72489 -0.49689,-0.86458 z m -1.15102,-1.33277 h 0.55349 c 0.4403,0 0.64787,0.18877 0.64787,0.58143 0,0.39265 -0.20757,0.58142 -0.64787,0.58142 h -0.55349 z m 0.63841,2.83917 h -0.63841 v -1.28366 h 0.63841 c 0.52205,0 0.64786,0.36245 0.64786,0.64184 0,0.27561 -0.12581,0.64182 -0.64786,0.64182 z"
         id="path23"
         style="fill:#ffffff;stroke-width:0.034458" />
      <path
         class="st0"
         d="m 124.36442,136.24714 c -0.85541,0 -1.54415,0.82684 -1.54415,1.85376 0,1.02692 0.68874,1.85378 1.54415,1.85378 0.85541,0 1.54414,-0.82686 1.54414,-1.85378 0,-1.02692 -0.68873,-1.85376 -1.54414,-1.85376 z m 0,3.296 c -0.65729,0 -1.17619,-0.63051 -1.17619,-1.44224 0,-0.81172 0.52205,-1.44223 1.17619,-1.44223 0.65413,0 1.17619,0.63051 1.17619,1.44223 0,0.80796 -0.52206,1.44224 -1.17619,1.44224 z"
         id="path24"
         style="fill:#ffffff;stroke-width:0.034458" />
      <path
         class="st0"
         d="m 130.12899,138.42181 c 0,0.68338 -0.3428,1.12133 -0.82396,1.12133 -0.48118,0 -0.82397,-0.43419 -0.82397,-1.12133 v -2.13315 h -0.36165 v 2.16336 c 0,0.92879 0.54406,1.50266 1.18562,1.50266 0.6447,0 1.1856,-0.5701 1.1856,-1.50266 v -2.16336 h -0.36164 z"
         id="path25"
         style="fill:#ffffff;stroke-width:0.034458" />
      <path
         id="polygon25"
         style="fill:#ffffff;stroke-width:0.034458"
         class="st0"
         d="m 133.44055,136.68131 v 3.22806 h 0.36165 v -3.22806 h 0.86484 v -0.39265 h -2.09134 v 0.39265 z" />
      <path
         id="rect25"
         style="fill:#ffffff;stroke-width:0.034458"
         class="st0"
         d="m 136.81499,136.28866 h 0.36166 v 3.62071 h -0.36166 z" />
      <path
         class="st0"
         d="m 146.76226,138.42181 c 0,0.68338 -0.3428,1.12133 -0.82397,1.12133 -0.48117,0 -0.82394,-0.43419 -0.82394,-1.12133 v -2.13315 h -0.36167 v 2.16336 c 0,0.92879 0.54406,1.50266 1.18561,1.50266 0.6447,0 1.18562,-0.5701 1.18562,-1.50266 v -2.16336 h -0.36165 z"
         id="path26"
         style="fill:#ffffff;stroke-width:0.034458" />
      <path
         id="polygon26"
         style="fill:#ffffff;stroke-width:0.034458"
         class="st0"
         d="m 151.32548,139.52048 h -1.41206 v -1.24591 h 1.3586 v -0.39264 h -1.3586 v -1.20062 h 1.41206 v -0.39265 h -1.77372 v 3.62071 h 1.77372 z" />
      <path
         class="st0"
         d="m 141.92856,138.98815 -0.32705,-0.39265 h -0.51261 l 0.57866,0.69469 c -0.18871,0.15864 -0.42141,0.25295 -0.67301,0.25295 -0.65728,0 -1.17619,-0.63051 -1.17619,-1.44224 0,-0.81172 0.52204,-1.44223 1.17619,-1.44223 0.65726,0 1.17617,0.63051 1.17617,1.44223 0,0.19633 -0.0315,0.3851 -0.088,0.55501 l 0.27045,0.32468 c 0.11642,-0.2605 0.18242,-0.56254 0.18242,-0.87969 0,-1.02692 -0.68873,-1.85376 -1.54415,-1.85376 -0.85541,0 -1.54415,0.82684 -1.54415,1.85376 0,1.02692 0.68874,1.85378 1.54415,1.85378 0.34593,0 0.66671,-0.13589 0.9246,-0.36622 l 0.47174,0.56632 0.25473,-0.30582 -0.46543,-0.55877 z"
         id="path27"
         style="fill:#ffffff;stroke-width:0.034458" />
    </g>
  </g>
</svg>
