<svg height="512" viewBox="0 0 24 24" width="512" xmlns="http://www.w3.org/2000/svg"><g id="_01" data-name="01"><path d="m22.51221 17.249a2.26247 2.26247 0 0 0 -.80274-.95019l-3.32129-2.35742a4.54506 4.54506 0 0 0 -.83886-.46582 2.12679 2.12679 0 0 0 -1.95215.11035 3.7798 3.7798 0 0 0 -.89942.69043l-.7207.6709a6.773 6.773 0 0 1 -1.15723-.83008c-.456-.38672-.94824-.8418-1.53906-1.42285-.46191-.47071-.92578-.97559-1.41308-1.54a7.84066 7.84066 0 0 1 -.81836-1.10645c-.00684-.02051-.01563-.043-.02539-.06836l.68164-.709a4.11253 4.11253 0 0 0 .66992-.84961 2.09165 2.09165 0 0 0 .31933-1.10059 2.29473 2.29473 0 0 0 -.19531-.89453 4.061 4.061 0 0 0 -.4834-.84961l-2.31543-3.26465a2.3775 2.3775 0 0 0 -.96289-.80859 2.63621 2.63621 0 0 0 -1.13279-.25293 3.64906 3.64906 0 0 0 -2.59475 1.14453 5.344 5.344 0 0 0 -1.331 1.93652 5.92325 5.92325 0 0 0 -.41411 2.20895 9.225 9.225 0 0 0 .77929 3.56445 18.79265 18.79265 0 0 0 2.04395 3.55664 29.41989 29.41989 0 0 0 2.86914 3.36231 29.78823 29.78823 0 0 0 3.36621 2.873 18.2858 18.2858 0 0 0 3.58789 2.0625 9.07733 9.07733 0 0 0 3.55371.791 5.79642 5.79642 0 0 0 2.23438-.43555 5.21358 5.21358 0 0 0 1.91113-1.37109 4.818 4.818 0 0 0 .80176-1.20313 3.271 3.271 0 0 0 .32226-1.41015 2.83778 2.83778 0 0 0 -.22265-1.08098zm-1.45606 1.85059a3.32044 3.32044 0 0 1 -.55664.83594 3.76056 3.76056 0 0 1 -1.37207.99218 5.9691 5.9691 0 0 1 -4.62793-.34863 16.81009 16.81009 0 0 1 -3.292-1.89453 28.23859 28.23859 0 0 1 -3.18945-2.72168 27.843 27.843 0 0 1 -2.71386-3.18064 17.18182 17.18182 0 0 1 -1.87793-3.2627 7.7354 7.7354 0 0 1 -.66113-2.97953 4.43569 4.43569 0 0 1 .30859-1.65625 3.89884 3.89884 0 0 1 .97656-1.40918 2.19144 2.19144 0 0 1 1.55471-.72457 1.15413 1.15413 0 0 1 .49609.11035.912.912 0 0 1 .37305.31348l2.32322 3.27539a2.69176 2.69176 0 0 1 .31836.55566.8841.8841 0 0 1 .0791.31543.65029.65029 0 0 1 -.1123.34082 2.76946 2.76946 0 0 1 -.44824.55957l-.74707.7773a1.28015 1.28015 0 0 0 -.38184.93164 1.74569 1.74569 0 0 0 .07813.49609l.124.2959a9.08693 9.08693 0 0 0 1.0205 1.40825c.51367.59375.998 1.12207 1.49121 1.625.62793.61719 1.14648 1.09571 1.63086 1.50684a8.49183 8.49183 0 0 0 1.42383 1.01172l.26562.11718a1.40649 1.40649 0 0 0 1.45313-.29589l.76269-.75391a2.42756 2.42756 0 0 1 .57813-.44922.5315.5315 0 0 1 .64746-.02734 3.01 3.01 0 0 1 .5498.30762l3.31738 2.35546a.7565.7565 0 0 1 .28125.30274 1.28912 1.28912 0 0 1 .10547.5 1.77767 1.77767 0 0 1 -.17868.76953z"/></g></svg>