<?xml version="1.0" encoding="UTF-8" standalone="no"?>
<!-- Created with Inkscape (http://www.inkscape.org/) -->

<svg
   width="210mm"
   height="297mm"
   viewBox="0 0 210 297"
   version="1.1"
   id="svg1"
   xmlns="http://www.w3.org/2000/svg"
   xmlns:svg="http://www.w3.org/2000/svg">
  <defs
     id="defs1" />
  <g
     id="layer1">
    <path
       class="st0"
       d="m 95.443543,95.509621 c -0.416525,0 -0.704891,-0.275462 -0.730518,-0.602264 l 0.249964,-0.05769 c 0.01252,0.256154 0.217935,0.410066 0.487005,0.410066 0.275536,0 0.467772,-0.166692 0.467772,-0.397231 0,-0.205033 -0.13461,-0.307549 -0.512632,-0.397258 -0.461361,-0.10876 -0.615164,-0.288297 -0.615164,-0.557387 0,-0.345972 0.307582,-0.595846 0.685651,-0.595846 0.384472,0 0.627978,0.230584 0.672838,0.518936 l -0.249957,0.05769 c -0.03851,-0.205033 -0.211429,-0.326738 -0.435742,-0.326738 -0.243459,0 -0.416526,0.140848 -0.416526,0.333156 0,0.166701 0.121852,0.256154 0.474199,0.339555 0.487005,0.121833 0.653621,0.313939 0.653621,0.627906 0.0071,0.378006 -0.314017,0.647105 -0.730511,0.647105 z"
       id="path15"
       style="fill:#004c09;stroke-width:0.0640749" />
    <path
       class="st0"
       d="m 99.358805,95.483978 v -0.986687 h -1.095767 v 0.986687 h -0.256319 v -2.13992 h 0.256319 v 0.922585 h 1.095767 v -0.922585 h 0.25632 v 2.13992 z"
       id="path16"
       style="fill:#004c09;stroke-width:0.0640749" />
    <path
       class="st0"
       d="m 102.37697,95.509621 c -0.45496,0 -0.83945,-0.339583 -0.83945,-0.884171 v -1.281392 h 0.25633 v 1.262167 c 0,0.403649 0.24346,0.659912 0.58312,0.659912 0.33964,0 0.58313,-0.256145 0.58313,-0.659912 v -1.262167 h 0.25632 v 1.281392 c 0,0.544588 -0.38449,0.884171 -0.83945,0.884171 z"
       id="path17"
       style="fill:#004c09;stroke-width:0.0640749" />
    <path
       class="st0"
       d="m 105.76038,93.574697 v 1.909281 h -0.25631 v -1.909281 h -0.61516 v -0.230584 h 1.48665 v 0.230584 z"
       id="path18"
       style="fill:#004c09;stroke-width:0.0640749" />
    <path
       class="st0"
       d="m 108.68882,93.574697 v 1.909281 h -0.25631 v -1.909281 h -0.61517 v -0.230584 h 1.48665 v 0.230584 z"
       id="path19"
       style="fill:#004c09;stroke-width:0.0640749" />
    <path
       class="st0"
       d="m 110.9829,95.483978 v -2.13992 h 1.26236 v 0.230585 h -1.00605 v 0.71117 h 0.9676 v 0.230594 h -0.9676 v 0.736813 h 1.00605 v 0.230584 z"
       id="path20"
       style="fill:#004c09;stroke-width:0.0640749" />
    <path
       class="st0"
       d="m 115.38518,95.483978 -0.92916,-1.114819 h 0.3204 c 0.26912,0 0.45498,-0.160165 0.45498,-0.397231 0,-0.243364 -0.18591,-0.397231 -0.45498,-0.397231 h -0.41653 v 1.909281 h -0.25631 v -2.13992 h 0.69848 c 0.43574,0 0.69206,0.275453 0.69206,0.62787 0,0.333165 -0.24346,0.589456 -0.5575,0.589456 l 0.77536,0.922594 z"
       id="path21"
       style="fill:#004c09;stroke-width:0.0640749" />
    <path
       class="st0"
       d="m 117.91633,95.509621 c -0.41653,0 -0.70487,-0.275462 -0.73052,-0.602264 l 0.24997,-0.05769 c 0.0125,0.256154 0.21793,0.410066 0.487,0.410066 0.27556,0 0.4678,-0.166692 0.4678,-0.397231 0,-0.205033 -0.13461,-0.307549 -0.51266,-0.397258 -0.46136,-0.10876 -0.61516,-0.288297 -0.61516,-0.557387 0,-0.345972 0.30758,-0.595846 0.68567,-0.595846 0.38447,0 0.62798,0.230584 0.67282,0.518936 l -0.24996,0.05769 c -0.0385,-0.205033 -0.21143,-0.326738 -0.43574,-0.326738 -0.24346,0 -0.41651,0.140848 -0.41651,0.333156 0,0.166701 0.12186,0.256154 0.47418,0.339555 0.487,0.121833 0.65362,0.313939 0.65362,0.627906 0.007,0.378006 -0.31398,0.647105 -0.73051,0.647105 z"
       id="path22"
       style="fill:#004c09;stroke-width:0.0640749" />
    <path
       class="st0"
       d="m 76.533573,87.129258 c 0.506229,-0.185716 0.839444,-0.685555 0.839444,-1.281392 0,-0.602264 -0.339622,-1.640209 -1.781419,-1.640209 h -2.140266 v 6.144307 h 2.140266 c 1.531507,0 1.954435,-1.044326 1.954435,-1.755496 0,-0.711198 -0.378072,-1.230144 -1.01246,-1.46721 z m -2.345324,-2.261661 h 1.127805 c 0.897119,0 1.320044,0.32033 1.320044,0.98665 0,0.66633 -0.422925,0.986687 -1.320044,0.986687 h -1.127805 z m 1.30082,4.818037 h -1.30082 v -2.17837 h 1.30082 c 1.063727,0 1.320045,0.615072 1.320045,1.089204 0,0.467714 -0.256318,1.089166 -1.320045,1.089166 z"
       id="path23"
       style="fill:#004c09;stroke-width:0.0640749" />
    <path
       class="st0"
       d="m 84.979292,84.130784 c -1.742969,0 -3.146318,1.403143 -3.146318,3.145832 0,1.742698 1.403349,3.145832 3.146318,3.145832 1.742976,0 3.146317,-1.403134 3.146317,-3.145832 0,-1.742689 -1.403341,-3.145832 -3.146317,-3.145832 z m 0,5.593301 c -1.339265,0 -2.396583,-1.069969 -2.396583,-2.447469 0,-1.377491 1.063721,-2.44747 2.396583,-2.44747 1.332861,0 2.396582,1.069979 2.396582,2.44747 0,1.37111 -1.063721,2.447469 -2.396582,2.447469 z"
       id="path24"
       style="fill:#004c09;stroke-width:0.0640749" />
    <path
       class="st0"
       d="m 96.725119,87.821204 c 0,1.159687 -0.698465,1.902881 -1.678885,1.902881 -0.980428,0 -1.678885,-0.736804 -1.678885,-1.902881 v -3.619937 h -0.736922 v 3.671195 c 0,1.576143 1.10858,2.549986 2.415807,2.549986 1.313653,0 2.415807,-0.967453 2.415807,-2.549986 v -3.671195 h -0.736922 z"
       id="path25"
       style="fill:#004c09;stroke-width:0.0640749" />
    <path
       id="polygon25"
       style="fill:#004c09;stroke-width:0.0640749"
       class="st0"
       d="m 103.47274,84.867597 v 5.477977 h 0.73692 v -5.477977 h 1.76218 v -0.66633 h -4.2613 v 0.66633 z" />
    <path
       id="rect25"
       style="fill:#004c09;stroke-width:0.0640749"
       class="st0"
       d="m 110.34849,84.201267 h 0.73692 v 6.144307 h -0.73692 z" />
    <path
       class="st0"
       d="m 130.61695,87.821204 c 0,1.159687 -0.69846,1.902881 -1.67888,1.902881 -0.98043,0 -1.67889,-0.736804 -1.67889,-1.902881 v -3.619937 h -0.73692 v 3.671195 c 0,1.576143 1.10858,2.549986 2.41581,2.549986 1.31363,0 2.4158,-0.967453 2.4158,-2.549986 v -3.671195 h -0.73692 z"
       id="path26"
       style="fill:#004c09;stroke-width:0.0640749" />
    <path
       id="polygon26"
       style="fill:#004c09;stroke-width:0.0640749"
       class="st0"
       d="m 139.91494,89.685634 h -2.87719 V 87.57133 H 139.806 V 86.905 h -2.76825 v -2.037403 h 2.87719 v -0.66633 h -3.61411 v 6.144307 h 3.61411 z" />
    <path
       class="st0"
       d="m 120.76788,88.782275 -0.66644,-0.66633 h -1.04448 l 1.17907,1.178885 c -0.3845,0.269209 -0.85867,0.429255 -1.37133,0.429255 -1.33925,0 -2.39656,-1.069969 -2.39656,-2.447469 0,-1.377491 1.06372,-2.44747 2.39656,-2.44747 1.33928,0 2.39659,1.069979 2.39659,2.44747 0,0.333165 -0.064,0.653522 -0.1794,0.941819 l 0.55109,0.551005 c 0.23719,-0.442071 0.37166,-0.954626 0.37166,-1.492824 0,-1.742689 -1.40333,-3.145832 -3.14632,-3.145832 -1.74296,0 -3.14632,1.403143 -3.14632,3.145832 0,1.742698 1.40336,3.145832 3.14632,3.145832 0.7049,0 1.35849,-0.230585 1.88396,-0.621489 l 0.96118,0.961071 0.51906,-0.518972 -0.9484,-0.948228 z"
       id="path27"
       style="fill:#004c09;stroke-width:0.0640749" />
    <path
       id="polygon1-3"
       style="fill:#004c09;stroke-width:0.0387392"
       class="st0"
       d="m 58.955966,89.957555 v -0.411331 h -2.432144 l 0.4022,0.411331 z" />
    <path
       id="polygon2-2"
       style="fill:#004c09;stroke-width:0.0387392"
       class="st0"
       d="m 58.955966,91.061066 v -0.411342 h -2.432144 l 0.4022,0.411342 z" />
    <path
       id="polygon3-6"
       style="fill:#004c09;stroke-width:0.0387392"
       class="st0"
       d="m 58.955966,87.746598 v -0.407382 h -2.432144 l 0.4022,0.407382 z" />
    <path
       id="polygon4-9"
       style="fill:#004c09;stroke-width:0.0387392"
       class="st0"
       d="m 58.955966,88.854057 v -0.411343 h -2.432144 l 0.4022,0.411343 z" />
    <path
       id="polygon5-4"
       style="fill:#004c09;stroke-width:0.0387392"
       class="st0"
       d="m 58.955966,86.643099 v -0.407382 h -2.432144 l 0.4022,0.407382 z" />
    <path
       class="st0"
       d="m 59.570649,93.952321 h -3.084772 v -8.282205 h 2.473881 v -0.462761 h -2.917817 v 9.211677 h 3.460406 l 0.01143,0.0036 6.674176,1.475292 v -12.447 l -6.617261,1.736337 z m 3.255507,-9.005999 2.785014,-0.731718 v 5.418629 h -2.785014 z m 0,4.936085 h 2.785014 v 5.276252 l -2.785014,-0.61702 z m -2.682571,-4.22811 2.447325,-0.640736 v 4.627581 h -2.447325 z m 0,4.22811 h 2.447325 v 4.607813 l -2.447325,-0.541859 z"
       id="path5-1"
       style="fill:#004c09;stroke-width:0.0387392" />
    <path
       id="polygon6-3"
       style="fill:#004c09;stroke-width:0.0387392"
       class="st0"
       d="m 58.955966,93.268063 v -0.411342 h -2.432144 l 0.4022,0.411342 z" />
    <path
       id="polygon7-7"
       style="fill:#004c09;stroke-width:0.0387392"
       class="st0"
       d="m 58.955966,92.164564 v -0.411343 h -2.432144 l 0.4022,0.411343 z" />
    <path
       id="polygon8-8"
       style="fill:#004c09;stroke-width:0.0387392"
       class="st0"
       d="m 66.89365,89.957555 h 2.299341 l 0.534993,-0.541859 H 66.89365 Z" />
    <path
       id="polygon9-8"
       style="fill:#004c09;stroke-width:0.0387392"
       class="st0"
       d="m 66.89365,91.29442 h 2.299341 l 0.534993,-0.545818 H 66.89365 Z" />
    <path
       id="polygon10-3"
       style="fill:#004c09;stroke-width:0.0387392"
       class="st0"
       d="m 66.89365,92.627326 h 2.299341 l 0.534993,-0.54187 H 66.89365 Z" />
    <path
       id="polygon11-8"
       style="fill:#004c09;stroke-width:0.0387392"
       class="st0"
       d="m 66.89365,85.950943 h 2.299341 l 0.534993,-0.541872 H 66.89365 Z" />
    <path
       id="polygon12-1"
       style="fill:#004c09;stroke-width:0.0387392"
       class="st0"
       d="m 66.89365,88.620702 h 2.299341 l 0.534993,-0.54186 H 66.89365 Z" />
    <path
       id="polygon13-5"
       style="fill:#004c09;stroke-width:0.0387392"
       class="st0"
       d="m 66.89365,87.287797 h 2.299341 l 0.534993,-0.54186 H 66.89365 Z" />
    <path
       id="polygon14-3"
       style="fill:#004c09;stroke-width:0.0387392"
       class="st0"
       d="m 66.89365,93.96418 h 2.299341 l 0.534993,-0.541859 H 66.89365 Z" />
    <path
       id="polygon15-5"
       style="fill:#004c09;stroke-width:0.0387392"
       class="st0"
       d="m 69.76972,94.818504 h -2.87607 v 0.462761 h 3.320007 V 84.238334 h -3.790501 v 0.462762 h 3.346564 z" />
  </g>
</svg>
