<?xml version="1.0" encoding="UTF-8" standalone="no"?>
<!-- Created with Inkscape (http://www.inkscape.org/) -->

<svg
   viewBox="54.96 83.45 178.31814 43.000005"
   version="1.1"
   id="svg1"
   width="178.31815"
   height="43.000004"
   xmlns="http://www.w3.org/2000/svg"
   xmlns:svg="http://www.w3.org/2000/svg">
  <defs
     id="defs1">
    <clipPath
       clipPathUnits="userSpaceOnUse"
       id="clipPath227">
      <path
         d="M 0,2000 H 2000 V 0 H 0 Z"
         transform="translate(-824.62065,-721.52339)"
         id="path227" />
    </clipPath>
    <clipPath
       clipPathUnits="userSpaceOnUse"
       id="clipPath229">
      <path
         d="M 0,2000 H 2000 V 0 H 0 Z"
         transform="translate(-885.68955,-721.92479)"
         id="path229" />
    </clipPath>
    <clipPath
       clipPathUnits="userSpaceOnUse"
       id="clipPath231">
      <path
         d="M 0,2000 H 2000 V 0 H 0 Z"
         transform="translate(-932.75835,-721.52339)"
         id="path231" />
    </clipPath>
    <clipPath
       clipPathUnits="userSpaceOnUse"
       id="clipPath233">
      <path
         d="M 0,2000 H 2000 V 0 H 0 Z"
         transform="translate(-985.5981,-751.73242)"
         id="path233" />
    </clipPath>
    <clipPath
       clipPathUnits="userSpaceOnUse"
       id="clipPath235">
      <path
         d="M 0,2000 H 2000 V 0 H 0 Z"
         transform="translate(-1031.2622,-751.73242)"
         id="path235" />
    </clipPath>
    <clipPath
       clipPathUnits="userSpaceOnUse"
       id="clipPath237">
      <path
         d="M 0,2000 H 2000 V 0 H 0 Z"
         transform="translate(-1067.1411,-721.92479)"
         id="path237" />
    </clipPath>
    <clipPath
       clipPathUnits="userSpaceOnUse"
       id="clipPath239">
      <path
         d="M 0,2000 H 2000 V 0 H 0 Z"
         transform="translate(-1135.7871,-721.92479)"
         id="path239" />
    </clipPath>
    <clipPath
       clipPathUnits="userSpaceOnUse"
       id="clipPath241">
      <path
         d="M 0,2000 H 2000 V 0 H 0 Z"
         transform="translate(-1175.2793,-721.52339)"
         id="path241" />
    </clipPath>
  </defs>
  <g
     id="layer1"
     transform="matrix(2.3487893,0,0,3.4546477,-76.670711,-204.84354)">
    <g
       id="g1"
       transform="matrix(0.86268452,0,0,0.87084236,11.258666,11.192668)">
      <path
         class="st0"
         d="m 76.533573,87.129258 c 0.506229,-0.185716 0.839444,-0.685555 0.839444,-1.281392 0,-0.602264 -0.339622,-1.640209 -1.781419,-1.640209 h -2.140266 v 6.144307 h 2.140266 c 1.531507,0 1.954435,-1.044326 1.954435,-1.755496 0,-0.711198 -0.378072,-1.230144 -1.01246,-1.46721 z m -2.345324,-2.261661 h 1.127805 c 0.897119,0 1.320044,0.32033 1.320044,0.98665 0,0.66633 -0.422925,0.986687 -1.320044,0.986687 h -1.127805 z m 1.30082,4.818037 h -1.30082 v -2.17837 h 1.30082 c 1.063727,0 1.320045,0.615072 1.320045,1.089204 0,0.467714 -0.256318,1.089166 -1.320045,1.089166 z"
         id="path23"
         style="fill:#ffffff;stroke-width:0.0640749" />
      <path
         class="st0"
         d="m 84.979292,84.130784 c -1.742969,0 -3.146318,1.403143 -3.146318,3.145832 0,1.742698 1.403349,3.145832 3.146318,3.145832 1.742976,0 3.146317,-1.403134 3.146317,-3.145832 0,-1.742689 -1.403341,-3.145832 -3.146317,-3.145832 z m 0,5.593301 c -1.339265,0 -2.396583,-1.069969 -2.396583,-2.447469 0,-1.377491 1.063721,-2.44747 2.396583,-2.44747 1.332861,0 2.396582,1.069979 2.396582,2.44747 0,1.37111 -1.063721,2.447469 -2.396582,2.447469 z"
         id="path24"
         style="fill:#ffffff;stroke-width:0.0640749" />
      <path
         class="st0"
         d="m 96.725119,87.821204 c 0,1.159687 -0.698465,1.902881 -1.678885,1.902881 -0.980428,0 -1.678885,-0.736804 -1.678885,-1.902881 v -3.619937 h -0.736922 v 3.671195 c 0,1.576143 1.10858,2.549986 2.415807,2.549986 1.313653,0 2.415807,-0.967453 2.415807,-2.549986 v -3.671195 h -0.736922 z"
         id="path25"
         style="fill:#ffffff;stroke-width:0.0640749" />
      <path
         id="polygon25"
         style="fill:#ffffff;stroke-width:0.0640749"
         class="st0"
         d="m 103.47274,84.867597 v 5.477977 h 0.73692 v -5.477977 h 1.76218 v -0.66633 h -4.2613 v 0.66633 z" />
      <path
         id="rect25"
         style="fill:#ffffff;stroke-width:0.0640749"
         class="st0"
         d="m 110.34849,84.201267 h 0.73692 v 6.144307 h -0.73692 z" />
      <path
         class="st0"
         d="m 130.61695,87.821204 c 0,1.159687 -0.69846,1.902881 -1.67888,1.902881 -0.98043,0 -1.67889,-0.736804 -1.67889,-1.902881 v -3.619937 h -0.73692 v 3.671195 c 0,1.576143 1.10858,2.549986 2.41581,2.549986 1.31363,0 2.4158,-0.967453 2.4158,-2.549986 v -3.671195 h -0.73692 z"
         id="path26"
         style="fill:#ffffff;stroke-width:0.0640749" />
      <path
         id="polygon26"
         style="fill:#ffffff;stroke-width:0.0640749"
         class="st0"
         d="m 139.91494,89.685634 h -2.87719 V 87.57133 H 139.806 V 86.905 h -2.76825 v -2.037403 h 2.87719 v -0.66633 h -3.61411 v 6.144307 h 3.61411 z" />
      <path
         class="st0"
         d="m 120.76788,88.782275 -0.66644,-0.66633 h -1.04448 l 1.17907,1.178885 c -0.3845,0.269209 -0.85867,0.429255 -1.37133,0.429255 -1.33925,0 -2.39656,-1.069969 -2.39656,-2.447469 0,-1.377491 1.06372,-2.44747 2.39656,-2.44747 1.33928,0 2.39659,1.069979 2.39659,2.44747 0,0.333165 -0.064,0.653522 -0.1794,0.941819 l 0.55109,0.551005 c 0.23719,-0.442071 0.37166,-0.954626 0.37166,-1.492824 0,-1.742689 -1.40333,-3.145832 -3.14632,-3.145832 -1.74296,0 -3.14632,1.403143 -3.14632,3.145832 0,1.742698 1.40336,3.145832 3.14632,3.145832 0.7049,0 1.35849,-0.230585 1.88396,-0.621489 l 0.96118,0.961071 0.51906,-0.518972 -0.9484,-0.948228 z"
         id="path27"
         style="fill:#ffffff;stroke-width:0.0640749" />
    </g>
    <path
       id="polygon1-3"
       style="fill:#ffffff;stroke-width:0.0387392"
       class="st0"
       d="m 58.955966,89.957555 v -0.411331 h -2.432144 l 0.4022,0.411331 z" />
    <path
       id="polygon2-2"
       style="fill:#ffffff;stroke-width:0.0387392"
       class="st0"
       d="m 58.955966,91.061066 v -0.411342 h -2.432144 l 0.4022,0.411342 z" />
    <path
       id="polygon3-6"
       style="fill:#ffffff;stroke-width:0.0387392"
       class="st0"
       d="m 58.955966,87.746598 v -0.407382 h -2.432144 l 0.4022,0.407382 z" />
    <path
       id="polygon4-9"
       style="fill:#ffffff;stroke-width:0.0387392"
       class="st0"
       d="m 58.955966,88.854057 v -0.411343 h -2.432144 l 0.4022,0.411343 z" />
    <path
       id="polygon5-4"
       style="fill:#ffffff;stroke-width:0.0387392"
       class="st0"
       d="m 58.955966,86.643099 v -0.407382 h -2.432144 l 0.4022,0.407382 z" />
    <path
       class="st0"
       d="m 59.570649,93.952321 h -3.084772 v -8.282205 h 2.473881 v -0.462761 h -2.917817 v 9.211677 h 3.460406 l 0.01143,0.0036 6.674176,1.475292 v -12.447 l -6.617261,1.736337 z m 3.255507,-9.005999 2.785014,-0.731718 v 5.418629 h -2.785014 z m 0,4.936085 h 2.785014 v 5.276252 l -2.785014,-0.61702 z m -2.682571,-4.22811 2.447325,-0.640736 v 4.627581 h -2.447325 z m 0,4.22811 h 2.447325 v 4.607813 l -2.447325,-0.541859 z"
       id="path5-1"
       style="fill:#ffffff;stroke-width:0.0387392" />
    <path
       id="polygon6-3"
       style="fill:#ffffff;stroke-width:0.0387392"
       class="st0"
       d="m 58.955966,93.268063 v -0.411342 h -2.432144 l 0.4022,0.411342 z" />
    <path
       id="polygon7-7"
       style="fill:#ffffff;stroke-width:0.0387392"
       class="st0"
       d="m 58.955966,92.164564 v -0.411343 h -2.432144 l 0.4022,0.411343 z" />
    <path
       id="polygon8-8"
       style="fill:#ffffff;stroke-width:0.0387392"
       class="st0"
       d="m 66.89365,89.957555 h 2.299341 l 0.534993,-0.541859 H 66.89365 Z" />
    <path
       id="polygon9-8"
       style="fill:#ffffff;stroke-width:0.0387392"
       class="st0"
       d="m 66.89365,91.29442 h 2.299341 l 0.534993,-0.545818 H 66.89365 Z" />
    <path
       id="polygon10-3"
       style="fill:#ffffff;stroke-width:0.0387392"
       class="st0"
       d="m 66.89365,92.627326 h 2.299341 l 0.534993,-0.54187 H 66.89365 Z" />
    <path
       id="polygon11-8"
       style="fill:#ffffff;stroke-width:0.0387392"
       class="st0"
       d="m 66.89365,85.950943 h 2.299341 l 0.534993,-0.541872 H 66.89365 Z" />
    <path
       id="polygon12-1"
       style="fill:#ffffff;stroke-width:0.0387392"
       class="st0"
       d="m 66.89365,88.620702 h 2.299341 l 0.534993,-0.54186 H 66.89365 Z" />
    <path
       id="polygon13-5"
       style="fill:#ffffff;stroke-width:0.0387392"
       class="st0"
       d="m 66.89365,87.287797 h 2.299341 l 0.534993,-0.54186 H 66.89365 Z" />
    <path
       id="polygon14-3"
       style="fill:#ffffff;stroke-width:0.0387392"
       class="st0"
       d="m 66.89365,93.96418 h 2.299341 l 0.534993,-0.541859 H 66.89365 Z" />
    <path
       id="polygon15-5"
       style="fill:#ffffff;stroke-width:0.0387392"
       class="st0"
       d="m 69.76972,94.818504 h -2.87607 v 0.462761 h 3.320007 V 84.238334 h -3.790501 v 0.462762 h 3.346564 z" />
  </g>
  <g
     id="g2"
     transform="matrix(0.52958095,0,0,0.52958095,79.775902,39.77129)">
    <path
       id="path226"
       d="m 0,0 c -6.474,0 -11.04,4.266 -11.391,9.384 l 3.914,0.853 c 0.201,-3.965 3.412,-6.424 7.627,-6.424 4.316,0 7.276,2.61 7.276,6.173 0,3.211 -2.057,4.818 -8.029,6.223 -7.175,1.655 -9.584,4.466 -9.584,8.73 0,5.37 4.767,9.334 10.688,9.334 6.022,0 9.836,-3.613 10.538,-8.079 L 7.125,25.341 c -0.552,3.161 -3.312,5.068 -6.774,5.068 -3.764,0 -6.473,-2.208 -6.473,-5.219 0,-2.609 1.907,-3.963 7.427,-5.319 C 8.881,18.015 11.491,15.004 11.491,10.036 11.491,4.216 6.473,0 0,0"
       style="fill:#ffffff;fill-opacity:1;fill-rule:nonzero;stroke:none"
       transform="matrix(0.4676654,0,0,-0.4676654,82.142005,154.16911)"
       clip-path="url(#clipPath227)" />
    <path
       id="path228"
       d="M 0,0 V 15.405 H -17.061 V 0 h -4.015 v 33.42 h 4.015 V 19.019 H 0 V 33.42 H 4.015 V 0 Z"
       style="fill:#ffffff;fill-opacity:1;fill-rule:nonzero;stroke:none"
       transform="matrix(0.4676654,0,0,-0.4676654,110.70182,153.98139)"
       clip-path="url(#clipPath229)" />
    <path
       id="path230"
       d="m 0,0 c -7.125,0 -13.147,5.27 -13.147,13.85 v 19.971 h 4.015 V 14.151 C -9.132,7.828 -5.319,3.813 0,3.813 c 5.319,0 9.133,4.015 9.133,10.338 v 19.67 h 4.014 V 13.85 C 13.147,5.27 7.126,0 0,0"
       style="fill:#ffffff;fill-opacity:1;fill-rule:nonzero;stroke:none"
       transform="matrix(0.4676654,0,0,-0.4676654,132.71427,154.16911)"
       clip-path="url(#clipPath231)" />
    <path
       id="path232"
       d="M 0,0 V -29.808 H -4.014 V 0 h -9.585 V 3.612 H 9.584 V 0 Z"
       style="fill:#ffffff;fill-opacity:1;fill-rule:nonzero;stroke:none"
       transform="matrix(0.4676654,0,0,-0.4676654,157.42559,140.04139)"
       clip-path="url(#clipPath233)" />
    <path
       id="path234"
       d="M 0,0 V -29.808 H -4.015 V 0 h -9.584 V 3.612 H 9.584 V 0 Z"
       style="fill:#ffffff;fill-opacity:1;fill-rule:nonzero;stroke:none"
       transform="matrix(0.4676654,0,0,-0.4676654,178.78113,140.04139)"
       clip-path="url(#clipPath235)" />
    <path
       id="path236"
       d="M 0,0 V 33.42 H 19.67 V 29.808 H 4.014 V 18.718 H 19.068 V 15.104 H 4.014 V 3.613 H 19.67 V 0 Z"
       style="fill:#ffffff;fill-opacity:1;fill-rule:nonzero;stroke:none"
       transform="matrix(0.4676654,0,0,-0.4676654,195.56043,153.98139)"
       clip-path="url(#clipPath237)" />
    <path
       id="path238"
       d="m 0,0 -14.452,17.362 h 5.018 c 4.215,0 7.126,2.459 7.126,6.223 0,3.764 -2.911,6.223 -7.126,6.223 h -6.523 V 0 h -4.014 v 33.42 h 10.888 c 6.825,0 10.789,-4.316 10.789,-9.835 0,-5.168 -3.763,-9.233 -8.731,-9.233 L 5.068,0 Z"
       style="fill:#ffffff;fill-opacity:1;fill-rule:nonzero;stroke:none"
       transform="matrix(0.4676654,0,0,-0.4676654,227.66379,153.98139)"
       clip-path="url(#clipPath239)" />
    <path
       id="path240"
       d="m 0,0 c -6.473,0 -11.04,4.266 -11.391,9.384 l 3.914,0.853 c 0.201,-3.965 3.413,-6.424 7.627,-6.424 4.316,0 7.276,2.61 7.276,6.173 0,3.211 -2.057,4.818 -8.028,6.223 -7.176,1.655 -9.585,4.466 -9.585,8.73 0,5.37 4.768,9.334 10.689,9.334 6.021,0 9.835,-3.613 10.538,-8.079 L 7.125,25.341 c -0.551,3.161 -3.312,5.068 -6.774,5.068 -3.763,0 -6.473,-2.208 -6.473,-5.219 0,-2.609 1.907,-3.963 7.427,-5.319 C 8.882,18.015 11.491,15.004 11.491,10.036 11.491,4.216 6.473,0 0,0"
       style="fill:#ffffff;fill-opacity:1;fill-rule:nonzero;stroke:none"
       transform="matrix(0.4676654,0,0,-0.4676654,246.13294,154.16911)"
       clip-path="url(#clipPath241)" />
  </g>
</svg>
