<svg version="1.1" id="Capa_1" xmlns="http://www.w3.org/2000/svg" xmlns:xlink="http://www.w3.org/1999/xlink" x="0px" y="0px" viewBox="0 0 512 512" style="enable-background:new 0 0 512 512;" xml:space="preserve">
<g>
	<g>
		<g>
			
				<line style="fill:none;stroke:#000000;stroke-width:15;stroke-linecap:round;stroke-linejoin:round;stroke-miterlimit:10;" x1="181.729" y1="71.578" x2="285.214" y2="71.578"/>
			
				<line style="fill:none;stroke:#000000;stroke-width:15;stroke-linecap:round;stroke-linejoin:round;stroke-miterlimit:10;" x1="181.729" y1="106.474" x2="285.214" y2="106.474"/>
		</g>
		<g>
			
				<polyline style="fill:none;stroke:#000000;stroke-width:15;stroke-linecap:round;stroke-linejoin:round;stroke-miterlimit:10;" points="&#10;&#9;&#9;&#9;&#9;70.602,350.318 87.246,366.105 110.071,337.161 &#9;&#9;&#9;"/>
			
				<line style="fill:none;stroke:#000000;stroke-width:15;stroke-linecap:round;stroke-linejoin:round;stroke-miterlimit:10;" x1="154.967" y1="351.633" x2="285.214" y2="351.633"/>
		</g>
		<g>
			
				<polyline style="fill:none;stroke:#000000;stroke-width:15;stroke-linecap:round;stroke-linejoin:round;stroke-miterlimit:10;" points="&#10;&#9;&#9;&#9;&#9;70.602,416.334 87.246,432.122 110.071,403.178 &#9;&#9;&#9;"/>
			
				<line style="fill:none;stroke:#000000;stroke-width:15;stroke-linecap:round;stroke-linejoin:round;stroke-miterlimit:10;" x1="154.967" y1="417.65" x2="285.214" y2="417.65"/>
		</g>
		<g>
			
				<line style="fill:none;stroke:#000000;stroke-width:15;stroke-linecap:round;stroke-linejoin:round;stroke-miterlimit:10;" x1="70.602" y1="188.344" x2="285.214" y2="188.344"/>
			
				<line style="fill:none;stroke:#000000;stroke-width:15;stroke-linecap:round;stroke-linejoin:round;stroke-miterlimit:10;" x1="70.602" y1="233.101" x2="285.214" y2="233.101"/>
			
				<line style="fill:none;stroke:#000000;stroke-width:15;stroke-linecap:round;stroke-linejoin:round;stroke-miterlimit:10;" x1="70.602" y1="277.858" x2="285.214" y2="277.858"/>
		</g>
		<path style="fill:none;stroke:#000000;stroke-width:15;stroke-linecap:round;stroke-linejoin:round;stroke-miterlimit:10;" d="&#10;&#9;&#9;&#9;M418.571,154.95l12.52,12.065c2.474,2.384,5.907,3.499,9.31,3.025l17.221-2.402c5.961-0.831,11.511,3.201,12.563,9.127&#10;&#9;&#9;&#9;l3.038,17.12c0.6,3.383,2.722,6.303,5.754,7.919l15.344,8.179c5.311,2.831,7.431,9.356,4.798,14.768l-7.606,15.636&#10;&#9;&#9;&#9;c-1.503,3.09-1.503,6.699,0,9.789l7.606,15.636c2.633,5.412,0.512,11.937-4.798,14.768l-15.344,8.179&#10;&#9;&#9;&#9;c-3.032,1.616-5.153,4.536-5.754,7.919l-3.038,17.12c-1.051,5.926-6.602,9.959-12.563,9.127l-17.221-2.402&#10;&#9;&#9;&#9;c-3.403-0.475-6.835,0.641-9.31,3.025l-12.52,12.065c-4.334,4.176-11.195,4.176-15.528,0l-12.52-12.065&#10;&#9;&#9;&#9;c-2.474-2.384-5.907-3.499-9.31-3.025l-17.221,2.402c-5.961,0.831-11.511-3.201-12.563-9.127l-3.038-17.12&#10;&#9;&#9;&#9;c-0.6-3.383-2.722-6.303-5.754-7.919l-15.344-8.179c-5.311-2.831-7.431-9.356-4.799-14.768l7.606-15.636&#10;&#9;&#9;&#9;c1.503-3.09,1.503-6.699,0-9.789l-7.606-15.636c-2.633-5.412-0.512-11.937,4.799-14.768l15.344-8.179&#10;&#9;&#9;&#9;c3.032-1.616,5.153-4.536,5.754-7.919l3.038-17.12c1.051-5.926,6.602-9.959,12.563-9.127l17.221,2.402&#10;&#9;&#9;&#9;c3.403,0.475,6.835-0.641,9.31-3.025l12.52-12.065C407.376,150.774,414.237,150.774,418.571,154.95z"/>
		<path style="fill:none;stroke:#000000;stroke-width:15;stroke-linejoin:round;stroke-miterlimit:10;" d="M332.689,8.865v61.752&#10;&#9;&#9;&#9;c0,8.284,6.716,15,15,15h61.752"/>
		<path style="fill:none;stroke:#000000;stroke-width:15;stroke-linejoin:round;stroke-miterlimit:10;" d="M96.783,127.011&#10;&#9;&#9;&#9;c-15.577-8.993-25.173-25.614-25.173-43.6V71.149c0-1,0.533-1.923,1.399-2.423l34.393-19.857c0.866-0.5,1.932-0.5,2.798,0&#10;&#9;&#9;&#9;l34.392,19.857c0.866,0.5,1.399,1.423,1.399,2.423v12.262c0,17.986-9.596,34.607-25.172,43.6l-10.619,6.131&#10;&#9;&#9;&#9;c-0.866,0.5-1.932,0.5-2.798,0L96.783,127.011z"/>
		
			<line style="fill:none;stroke:#000000;stroke-width:15;stroke-linejoin:round;stroke-miterlimit:10;" x1="108.801" y1="133.517" x2="108.801" y2="48.495"/>
		<path style="fill:none;stroke:#000000;stroke-width:15;stroke-linecap:round;stroke-linejoin:round;stroke-miterlimit:10;" d="&#10;&#9;&#9;&#9;M410.806,151.818V91.831c0-3.978-1.58-7.794-4.393-10.607l-69.331-69.331C334.269,9.08,330.454,7.5,326.476,7.5H26.753&#10;&#9;&#9;&#9;c-8.284,0-15,6.716-15,15v53.505"/>
		<path style="fill:none;stroke:#000000;stroke-width:15;stroke-linecap:round;stroke-linejoin:round;stroke-miterlimit:10;" d="&#10;&#9;&#9;&#9;M11.753,111.005V489.5c0,8.284,6.716,15,15,15h369.053c8.284,0,15-6.716,15-15v-60.19"/>
		<path style="fill:none;stroke:#000000;stroke-width:15;stroke-linecap:round;stroke-linejoin:round;stroke-miterlimit:10;" d="&#10;&#9;&#9;&#9;M368.256,231.398c-1.426,4.373-2.207,9.036-2.207,13.885c0,24.719,20.038,44.757,44.757,44.757&#10;&#9;&#9;&#9;c24.719,0,44.757-20.038,44.757-44.757c0-24.719-20.038-44.757-44.757-44.757c-6.98,0-13.587,1.599-19.475,4.45"/>
		<path style="fill:none;stroke:#000000;stroke-width:15;stroke-linecap:round;stroke-linejoin:round;stroke-miterlimit:10;" d="&#10;&#9;&#9;&#9;M365.49,385.251v57.39c0,7.318,8.308,11.541,14.22,7.228l25.824-18.84c3.142-2.292,7.404-2.292,10.546,0l25.824,18.84&#10;&#9;&#9;&#9;c5.912,4.313,14.22,0.09,14.22-7.228V322.718"/>
		
			<line style="fill:none;stroke:#000000;stroke-width:15;stroke-linecap:round;stroke-linejoin:round;stroke-miterlimit:10;" x1="365.49" y1="322.718" x2="365.49" y2="350.251"/>
	</g>
</g>
<g>
</g>
<g>
</g>
<g>
</g>
<g>
</g>
<g>
</g>
<g>
</g>
<g>
</g>
<g>
</g>
<g>
</g>
<g>
</g>
<g>
</g>
<g>
</g>
<g>
</g>
<g>
</g>
<g>
</g>
</svg>