<?xml version="1.0" encoding="UTF-8" standalone="no"?>
<!-- Created with Inkscape (http://www.inkscape.org/) -->

<svg
   width="197.69992mm"
   height="192.89998mm"
   viewBox="0 0 197.69992 192.89998"
   version="1.1"
   id="svg1"
   xmlns="http://www.w3.org/2000/svg"
   xmlns:svg="http://www.w3.org/2000/svg">
  <defs
     id="defs1">
    <linearGradient
       x1="0"
       y1="0"
       x2="1"
       y2="0"
       gradientUnits="userSpaceOnUse"
       gradientTransform="matrix(175.12413,-189.11826,175.90592,188.27773,4.1361285,196.80961)"
       spreadMethod="pad"
       id="linearGradient5">
      <stop
         style="stop-opacity:1;stop-color:#ba7802 icc-color(sRGB IEC61966-2.1, 0.72940063, 0.47058105, 0.00784302);"
         offset="0"
         id="stop1" />
      <stop
         style="stop-opacity:1;stop-color:#f5d06f icc-color(sRGB IEC61966-2.1, 0.96076965, 0.81567383, 0.43528748);"
         offset="0.43124639"
         id="stop2" />
      <stop
         style="stop-opacity:1;stop-color:#f5d06f icc-color(sRGB IEC61966-2.1, 0.96076965, 0.81567383, 0.43528748);"
         offset="0.5"
         id="stop3" />
      <stop
         style="stop-opacity:1;stop-color:#f5d06f icc-color(sRGB IEC61966-2.1, 0.96076965, 0.81567383, 0.43528748);"
         offset="0.56875361"
         id="stop4" />
      <stop
         style="stop-opacity:1;stop-color:#ba7802 icc-color(sRGB IEC61966-2.1, 0.72940063, 0.47058105, 0.00784302);"
         offset="1"
         id="stop5" />
    </linearGradient>
    <linearGradient
       x1="0"
       y1="0"
       x2="1"
       y2="0"
       gradientUnits="userSpaceOnUse"
       gradientTransform="matrix(175.12413,-189.11826,175.90592,188.27773,27.140985,221.43245)"
       spreadMethod="pad"
       id="linearGradient10">
      <stop
         style="stop-opacity:1;stop-color:#ba7802 icc-color(sRGB IEC61966-2.1, 0.72940063, 0.47058105, 0.00784302);"
         offset="0"
         id="stop6" />
      <stop
         style="stop-opacity:1;stop-color:#f5d06f icc-color(sRGB IEC61966-2.1, 0.96076965, 0.81567383, 0.43528748);"
         offset="0.43124639"
         id="stop7" />
      <stop
         style="stop-opacity:1;stop-color:#f5d06f icc-color(sRGB IEC61966-2.1, 0.96076965, 0.81567383, 0.43528748);"
         offset="0.5"
         id="stop8" />
      <stop
         style="stop-opacity:1;stop-color:#f5d06f icc-color(sRGB IEC61966-2.1, 0.96076965, 0.81567383, 0.43528748);"
         offset="0.56875361"
         id="stop9" />
      <stop
         style="stop-opacity:1;stop-color:#ba7802 icc-color(sRGB IEC61966-2.1, 0.72940063, 0.47058105, 0.00784302);"
         offset="1"
         id="stop10" />
    </linearGradient>
    <linearGradient
       x1="0"
       y1="0"
       x2="1"
       y2="0"
       gradientUnits="userSpaceOnUse"
       gradientTransform="matrix(175.12413,-189.11826,175.90592,188.27773,41.118796,236.39331)"
       spreadMethod="pad"
       id="linearGradient15">
      <stop
         style="stop-opacity:1;stop-color:#ba7802 icc-color(sRGB IEC61966-2.1, 0.72940063, 0.47058105, 0.00784302);"
         offset="0"
         id="stop11" />
      <stop
         style="stop-opacity:1;stop-color:#f5d06f icc-color(sRGB IEC61966-2.1, 0.96076965, 0.81567383, 0.43528748);"
         offset="0.43124639"
         id="stop12" />
      <stop
         style="stop-opacity:1;stop-color:#f5d06f icc-color(sRGB IEC61966-2.1, 0.96076965, 0.81567383, 0.43528748);"
         offset="0.5"
         id="stop13" />
      <stop
         style="stop-opacity:1;stop-color:#f5d06f icc-color(sRGB IEC61966-2.1, 0.96076965, 0.81567383, 0.43528748);"
         offset="0.56875361"
         id="stop14" />
      <stop
         style="stop-opacity:1;stop-color:#ba7802 icc-color(sRGB IEC61966-2.1, 0.72940063, 0.47058105, 0.00784302);"
         offset="1"
         id="stop15" />
    </linearGradient>
    <linearGradient
       x1="0"
       y1="0"
       x2="1"
       y2="0"
       gradientUnits="userSpaceOnUse"
       gradientTransform="matrix(175.12413,-189.11826,175.90592,188.27773,49.347141,245.20039)"
       spreadMethod="pad"
       id="linearGradient20">
      <stop
         style="stop-opacity:1;stop-color:#ba7802 icc-color(sRGB IEC61966-2.1, 0.72940063, 0.47058105, 0.00784302);"
         offset="0"
         id="stop16" />
      <stop
         style="stop-opacity:1;stop-color:#f5d06f icc-color(sRGB IEC61966-2.1, 0.96076965, 0.81567383, 0.43528748);"
         offset="0.43124639"
         id="stop17" />
      <stop
         style="stop-opacity:1;stop-color:#f5d06f icc-color(sRGB IEC61966-2.1, 0.96076965, 0.81567383, 0.43528748);"
         offset="0.5"
         id="stop18" />
      <stop
         style="stop-opacity:1;stop-color:#f5d06f icc-color(sRGB IEC61966-2.1, 0.96076965, 0.81567383, 0.43528748);"
         offset="0.56875361"
         id="stop19" />
      <stop
         style="stop-opacity:1;stop-color:#ba7802 icc-color(sRGB IEC61966-2.1, 0.72940063, 0.47058105, 0.00784302);"
         offset="1"
         id="stop20" />
    </linearGradient>
    <linearGradient
       x1="0"
       y1="0"
       x2="1"
       y2="0"
       gradientUnits="userSpaceOnUse"
       gradientTransform="matrix(175.12413,-189.11826,175.90592,188.27773,74.246467,271.85092)"
       spreadMethod="pad"
       id="linearGradient25">
      <stop
         style="stop-opacity:1;stop-color:#ba7802 icc-color(sRGB IEC61966-2.1, 0.72940063, 0.47058105, 0.00784302);"
         offset="0"
         id="stop21" />
      <stop
         style="stop-opacity:1;stop-color:#f5d06f icc-color(sRGB IEC61966-2.1, 0.96076965, 0.81567383, 0.43528748);"
         offset="0.43124639"
         id="stop22" />
      <stop
         style="stop-opacity:1;stop-color:#f5d06f icc-color(sRGB IEC61966-2.1, 0.96076965, 0.81567383, 0.43528748);"
         offset="0.5"
         id="stop23" />
      <stop
         style="stop-opacity:1;stop-color:#f5d06f icc-color(sRGB IEC61966-2.1, 0.96076965, 0.81567383, 0.43528748);"
         offset="0.56875361"
         id="stop24" />
      <stop
         style="stop-opacity:1;stop-color:#ba7802 icc-color(sRGB IEC61966-2.1, 0.72940063, 0.47058105, 0.00784302);"
         offset="1"
         id="stop25" />
    </linearGradient>
    <linearGradient
       x1="0"
       y1="0"
       x2="1"
       y2="0"
       gradientUnits="userSpaceOnUse"
       gradientTransform="matrix(175.12413,-189.11826,175.90592,188.27773,83.578617,281.8394)"
       spreadMethod="pad"
       id="linearGradient30">
      <stop
         style="stop-opacity:1;stop-color:#ba7802 icc-color(sRGB IEC61966-2.1, 0.72940063, 0.47058105, 0.00784302);"
         offset="0"
         id="stop26" />
      <stop
         style="stop-opacity:1;stop-color:#f5d06f icc-color(sRGB IEC61966-2.1, 0.96076965, 0.81567383, 0.43528748);"
         offset="0.43124639"
         id="stop27" />
      <stop
         style="stop-opacity:1;stop-color:#f5d06f icc-color(sRGB IEC61966-2.1, 0.96076965, 0.81567383, 0.43528748);"
         offset="0.5"
         id="stop28" />
      <stop
         style="stop-opacity:1;stop-color:#f5d06f icc-color(sRGB IEC61966-2.1, 0.96076965, 0.81567383, 0.43528748);"
         offset="0.56875361"
         id="stop29" />
      <stop
         style="stop-opacity:1;stop-color:#ba7802 icc-color(sRGB IEC61966-2.1, 0.72940063, 0.47058105, 0.00784302);"
         offset="1"
         id="stop30" />
    </linearGradient>
    <linearGradient
       x1="0"
       y1="0"
       x2="1"
       y2="0"
       gradientUnits="userSpaceOnUse"
       gradientTransform="matrix(175.12413,-189.11826,175.90592,188.27773,94.356349,293.37519)"
       spreadMethod="pad"
       id="linearGradient35">
      <stop
         style="stop-opacity:1;stop-color:#ba7802 icc-color(sRGB IEC61966-2.1, 0.72940063, 0.47058105, 0.00784302);"
         offset="0"
         id="stop31" />
      <stop
         style="stop-opacity:1;stop-color:#f5d06f icc-color(sRGB IEC61966-2.1, 0.96076965, 0.81567383, 0.43528748);"
         offset="0.43124639"
         id="stop32" />
      <stop
         style="stop-opacity:1;stop-color:#f5d06f icc-color(sRGB IEC61966-2.1, 0.96076965, 0.81567383, 0.43528748);"
         offset="0.5"
         id="stop33" />
      <stop
         style="stop-opacity:1;stop-color:#f5d06f icc-color(sRGB IEC61966-2.1, 0.96076965, 0.81567383, 0.43528748);"
         offset="0.56875361"
         id="stop34" />
      <stop
         style="stop-opacity:1;stop-color:#ba7802 icc-color(sRGB IEC61966-2.1, 0.72940063, 0.47058105, 0.00784302);"
         offset="1"
         id="stop35" />
    </linearGradient>
    <linearGradient
       x1="0"
       y1="0"
       x2="1"
       y2="0"
       gradientUnits="userSpaceOnUse"
       gradientTransform="matrix(175.12413,-189.11826,175.90592,188.27773,33.792379,228.55164)"
       spreadMethod="pad"
       id="linearGradient40">
      <stop
         style="stop-opacity:1;stop-color:#ba7802 icc-color(sRGB IEC61966-2.1, 0.72940063, 0.47058105, 0.00784302);"
         offset="0"
         id="stop36" />
      <stop
         style="stop-opacity:1;stop-color:#f5d06f icc-color(sRGB IEC61966-2.1, 0.96076965, 0.81567383, 0.43528748);"
         offset="0.43124639"
         id="stop37" />
      <stop
         style="stop-opacity:1;stop-color:#f5d06f icc-color(sRGB IEC61966-2.1, 0.96076965, 0.81567383, 0.43528748);"
         offset="0.5"
         id="stop38" />
      <stop
         style="stop-opacity:1;stop-color:#f5d06f icc-color(sRGB IEC61966-2.1, 0.96076965, 0.81567383, 0.43528748);"
         offset="0.56875361"
         id="stop39" />
      <stop
         style="stop-opacity:1;stop-color:#ba7802 icc-color(sRGB IEC61966-2.1, 0.72940063, 0.47058105, 0.00784302);"
         offset="1"
         id="stop40" />
    </linearGradient>
    <linearGradient
       x1="0"
       y1="0"
       x2="1"
       y2="0"
       gradientUnits="userSpaceOnUse"
       gradientTransform="matrix(175.12413,-189.11826,175.90592,188.27773,39.962072,235.15526)"
       spreadMethod="pad"
       id="linearGradient45">
      <stop
         style="stop-opacity:1;stop-color:#ba7802 icc-color(sRGB IEC61966-2.1, 0.72940063, 0.47058105, 0.00784302);"
         offset="0"
         id="stop41" />
      <stop
         style="stop-opacity:1;stop-color:#f5d06f icc-color(sRGB IEC61966-2.1, 0.96076965, 0.81567383, 0.43528748);"
         offset="0.43124639"
         id="stop42" />
      <stop
         style="stop-opacity:1;stop-color:#f5d06f icc-color(sRGB IEC61966-2.1, 0.96076965, 0.81567383, 0.43528748);"
         offset="0.5"
         id="stop43" />
      <stop
         style="stop-opacity:1;stop-color:#f5d06f icc-color(sRGB IEC61966-2.1, 0.96076965, 0.81567383, 0.43528748);"
         offset="0.56875361"
         id="stop44" />
      <stop
         style="stop-opacity:1;stop-color:#ba7802 icc-color(sRGB IEC61966-2.1, 0.72940063, 0.47058105, 0.00784302);"
         offset="1"
         id="stop45" />
    </linearGradient>
    <linearGradient
       x1="0"
       y1="0"
       x2="1"
       y2="0"
       gradientUnits="userSpaceOnUse"
       gradientTransform="matrix(175.12413,-189.11826,175.90592,188.27773,46.242064,241.87695)"
       spreadMethod="pad"
       id="linearGradient50">
      <stop
         style="stop-opacity:1;stop-color:#ba7802 icc-color(sRGB IEC61966-2.1, 0.72940063, 0.47058105, 0.00784302);"
         offset="0"
         id="stop46" />
      <stop
         style="stop-opacity:1;stop-color:#f5d06f icc-color(sRGB IEC61966-2.1, 0.96076965, 0.81567383, 0.43528748);"
         offset="0.43124639"
         id="stop47" />
      <stop
         style="stop-opacity:1;stop-color:#f5d06f icc-color(sRGB IEC61966-2.1, 0.96076965, 0.81567383, 0.43528748);"
         offset="0.5"
         id="stop48" />
      <stop
         style="stop-opacity:1;stop-color:#f5d06f icc-color(sRGB IEC61966-2.1, 0.96076965, 0.81567383, 0.43528748);"
         offset="0.56875361"
         id="stop49" />
      <stop
         style="stop-opacity:1;stop-color:#ba7802 icc-color(sRGB IEC61966-2.1, 0.72940063, 0.47058105, 0.00784302);"
         offset="1"
         id="stop50" />
    </linearGradient>
    <linearGradient
       x1="0"
       y1="0"
       x2="1"
       y2="0"
       gradientUnits="userSpaceOnUse"
       gradientTransform="matrix(175.12413,-189.11826,175.90592,188.27773,52.324311,248.38699)"
       spreadMethod="pad"
       id="linearGradient55">
      <stop
         style="stop-opacity:1;stop-color:#ba7802 icc-color(sRGB IEC61966-2.1, 0.72940063, 0.47058105, 0.00784302);"
         offset="0"
         id="stop51" />
      <stop
         style="stop-opacity:1;stop-color:#f5d06f icc-color(sRGB IEC61966-2.1, 0.96076965, 0.81567383, 0.43528748);"
         offset="0.43124639"
         id="stop52" />
      <stop
         style="stop-opacity:1;stop-color:#f5d06f icc-color(sRGB IEC61966-2.1, 0.96076965, 0.81567383, 0.43528748);"
         offset="0.5"
         id="stop53" />
      <stop
         style="stop-opacity:1;stop-color:#f5d06f icc-color(sRGB IEC61966-2.1, 0.96076965, 0.81567383, 0.43528748);"
         offset="0.56875361"
         id="stop54" />
      <stop
         style="stop-opacity:1;stop-color:#ba7802 icc-color(sRGB IEC61966-2.1, 0.72940063, 0.47058105, 0.00784302);"
         offset="1"
         id="stop55" />
    </linearGradient>
    <linearGradient
       x1="0"
       y1="0"
       x2="1"
       y2="0"
       gradientUnits="userSpaceOnUse"
       gradientTransform="matrix(175.12413,-189.11826,175.90592,188.27773,58.022696,254.48613)"
       spreadMethod="pad"
       id="linearGradient60">
      <stop
         style="stop-opacity:1;stop-color:#ba7802 icc-color(sRGB IEC61966-2.1, 0.72940063, 0.47058105, 0.00784302);"
         offset="0"
         id="stop56" />
      <stop
         style="stop-opacity:1;stop-color:#f5d06f icc-color(sRGB IEC61966-2.1, 0.96076965, 0.81567383, 0.43528748);"
         offset="0.43124639"
         id="stop57" />
      <stop
         style="stop-opacity:1;stop-color:#f5d06f icc-color(sRGB IEC61966-2.1, 0.96076965, 0.81567383, 0.43528748);"
         offset="0.5"
         id="stop58" />
      <stop
         style="stop-opacity:1;stop-color:#f5d06f icc-color(sRGB IEC61966-2.1, 0.96076965, 0.81567383, 0.43528748);"
         offset="0.56875361"
         id="stop59" />
      <stop
         style="stop-opacity:1;stop-color:#ba7802 icc-color(sRGB IEC61966-2.1, 0.72940063, 0.47058105, 0.00784302);"
         offset="1"
         id="stop60" />
    </linearGradient>
    <linearGradient
       x1="0"
       y1="0"
       x2="1"
       y2="0"
       gradientUnits="userSpaceOnUse"
       gradientTransform="matrix(175.12413,-189.11826,175.90592,188.27773,64.075749,260.96489)"
       spreadMethod="pad"
       id="linearGradient65">
      <stop
         style="stop-opacity:1;stop-color:#ba7802 icc-color(sRGB IEC61966-2.1, 0.72940063, 0.47058105, 0.00784302);"
         offset="0"
         id="stop61" />
      <stop
         style="stop-opacity:1;stop-color:#f5d06f icc-color(sRGB IEC61966-2.1, 0.96076965, 0.81567383, 0.43528748);"
         offset="0.43124639"
         id="stop62" />
      <stop
         style="stop-opacity:1;stop-color:#f5d06f icc-color(sRGB IEC61966-2.1, 0.96076965, 0.81567383, 0.43528748);"
         offset="0.5"
         id="stop63" />
      <stop
         style="stop-opacity:1;stop-color:#f5d06f icc-color(sRGB IEC61966-2.1, 0.96076965, 0.81567383, 0.43528748);"
         offset="0.56875361"
         id="stop64" />
      <stop
         style="stop-opacity:1;stop-color:#ba7802 icc-color(sRGB IEC61966-2.1, 0.72940063, 0.47058105, 0.00784302);"
         offset="1"
         id="stop65" />
    </linearGradient>
    <linearGradient
       x1="0"
       y1="0"
       x2="1"
       y2="0"
       gradientUnits="userSpaceOnUse"
       gradientTransform="matrix(175.12413,-189.11826,175.90592,188.27773,70.048065,267.35727)"
       spreadMethod="pad"
       id="linearGradient70">
      <stop
         style="stop-opacity:1;stop-color:#ba7802 icc-color(sRGB IEC61966-2.1, 0.72940063, 0.47058105, 0.00784302);"
         offset="0"
         id="stop66" />
      <stop
         style="stop-opacity:1;stop-color:#f5d06f icc-color(sRGB IEC61966-2.1, 0.96076965, 0.81567383, 0.43528748);"
         offset="0.43124639"
         id="stop67" />
      <stop
         style="stop-opacity:1;stop-color:#f5d06f icc-color(sRGB IEC61966-2.1, 0.96076965, 0.81567383, 0.43528748);"
         offset="0.5"
         id="stop68" />
      <stop
         style="stop-opacity:1;stop-color:#f5d06f icc-color(sRGB IEC61966-2.1, 0.96076965, 0.81567383, 0.43528748);"
         offset="0.56875361"
         id="stop69" />
      <stop
         style="stop-opacity:1;stop-color:#ba7802 icc-color(sRGB IEC61966-2.1, 0.72940063, 0.47058105, 0.00784302);"
         offset="1"
         id="stop70" />
    </linearGradient>
    <linearGradient
       x1="0"
       y1="0"
       x2="1"
       y2="0"
       gradientUnits="userSpaceOnUse"
       gradientTransform="matrix(175.12413,-189.11826,175.90592,188.27773,75.705533,273.41263)"
       spreadMethod="pad"
       id="linearGradient75">
      <stop
         style="stop-opacity:1;stop-color:#ba7802 icc-color(sRGB IEC61966-2.1, 0.72940063, 0.47058105, 0.00784302);"
         offset="0"
         id="stop71" />
      <stop
         style="stop-opacity:1;stop-color:#f5d06f icc-color(sRGB IEC61966-2.1, 0.96076965, 0.81567383, 0.43528748);"
         offset="0.43124639"
         id="stop72" />
      <stop
         style="stop-opacity:1;stop-color:#f5d06f icc-color(sRGB IEC61966-2.1, 0.96076965, 0.81567383, 0.43528748);"
         offset="0.5"
         id="stop73" />
      <stop
         style="stop-opacity:1;stop-color:#f5d06f icc-color(sRGB IEC61966-2.1, 0.96076965, 0.81567383, 0.43528748);"
         offset="0.56875361"
         id="stop74" />
      <stop
         style="stop-opacity:1;stop-color:#ba7802 icc-color(sRGB IEC61966-2.1, 0.72940063, 0.47058105, 0.00784302);"
         offset="1"
         id="stop75" />
    </linearGradient>
    <linearGradient
       x1="0"
       y1="0"
       x2="1"
       y2="0"
       gradientUnits="userSpaceOnUse"
       gradientTransform="matrix(175.12413,-189.11826,175.90592,188.27773,9.4399985,202.48653)"
       spreadMethod="pad"
       id="linearGradient85">
      <stop
         style="stop-opacity:1;stop-color:#ba7802 icc-color(sRGB IEC61966-2.1, 0.72940063, 0.47058105, 0.00784302);"
         offset="0"
         id="stop81" />
      <stop
         style="stop-opacity:1;stop-color:#f5d06f icc-color(sRGB IEC61966-2.1, 0.96076965, 0.81567383, 0.43528748);"
         offset="0.43124639"
         id="stop82" />
      <stop
         style="stop-opacity:1;stop-color:#f5d06f icc-color(sRGB IEC61966-2.1, 0.96076965, 0.81567383, 0.43528748);"
         offset="0.5"
         id="stop83" />
      <stop
         style="stop-opacity:1;stop-color:#f5d06f icc-color(sRGB IEC61966-2.1, 0.96076965, 0.81567383, 0.43528748);"
         offset="0.56875361"
         id="stop84" />
      <stop
         style="stop-opacity:1;stop-color:#ba7802 icc-color(sRGB IEC61966-2.1, 0.72940063, 0.47058105, 0.00784302);"
         offset="1"
         id="stop85" />
    </linearGradient>
    <linearGradient
       x1="0"
       y1="0"
       x2="1"
       y2="0"
       gradientUnits="userSpaceOnUse"
       gradientTransform="matrix(175.12413,-189.11826,175.90592,188.27773,7.7202785,200.64585)"
       spreadMethod="pad"
       id="linearGradient90">
      <stop
         style="stop-opacity:1;stop-color:#ba7802 icc-color(sRGB IEC61966-2.1, 0.72940063, 0.47058105, 0.00784302);"
         offset="0"
         id="stop86" />
      <stop
         style="stop-opacity:1;stop-color:#f5d06f icc-color(sRGB IEC61966-2.1, 0.96076965, 0.81567383, 0.43528748);"
         offset="0.43124639"
         id="stop87" />
      <stop
         style="stop-opacity:1;stop-color:#f5d06f icc-color(sRGB IEC61966-2.1, 0.96076965, 0.81567383, 0.43528748);"
         offset="0.5"
         id="stop88" />
      <stop
         style="stop-opacity:1;stop-color:#f5d06f icc-color(sRGB IEC61966-2.1, 0.96076965, 0.81567383, 0.43528748);"
         offset="0.56875361"
         id="stop89" />
      <stop
         style="stop-opacity:1;stop-color:#ba7802 icc-color(sRGB IEC61966-2.1, 0.72940063, 0.47058105, 0.00784302);"
         offset="1"
         id="stop90" />
    </linearGradient>
  </defs>
  <g
     id="layer1"
     transform="translate(-7.0711381,-19.73272)">
    <path
       id="path5"
       d="m 12.470348,157.51016 h -0.67135 -4.7130795 c 1.1576,0 2.16926,0.42885 3.0351095,1.28645 v 0 c 0.16556,0.16734 0.32096,0.34514 0.4671,0.53313 v 0 c 0.6612,0.85773 1.06006,1.88822 1.19618,3.09041 v 0 c 0.009,0.0411 0.0138,0.0892 0.0138,0.14139 v 0 12.62851 0.62722 1.39654 0.64299 1.41188 14.4167 c 0,0.0735 -0.005,0.14687 -0.0138,0.2195 v 0 c -0.0481,0.42903 -0.13099,0.84224 -0.24823,1.23939 v 0 c -0.18487,0.59595 -0.4428,1.12942 -0.77318,1.59993 v 0 c -0.12648,0.18853 -0.26258,0.3611 -0.40876,0.51819 v 0 c -0.9143195,1.03488 -2.0088795,1.55266 -3.2829995,1.55266 v 0 h 4.7275795 0.67136 2.17401 0.67139 4.43571 c 2.12073,0.0945 4.23149,0.0306 6.33266,-0.18809 v 0 c 0.943439,-0.10465 1.882374,-0.23534 2.816065,-0.39224 v 0 c 0.194485,-0.0306 0.384368,-0.068 0.569146,-0.11003 v 0 c 0.379308,-0.0733 0.758708,-0.15177 1.13829,-0.23521 v 0 c 0.563856,-0.12559 1.123254,-0.26107 1.677964,-0.40788 v 0 c 0.223905,-0.073 0.452411,-0.14138 0.685834,-0.20408 v 0 c 0.320915,-0.10397 0.646752,-0.20887 0.97746,-0.31367 v 0 c 0.359996,-0.12577 0.71981,-0.26118 1.079668,-0.40786 v 0 c 0.486479,-0.18853 0.96804,-0.39226 1.444772,-0.61191 v 0 c 0.398619,-0.18809 0.797598,-0.3869 1.196356,-0.59574 v 0 c 0.45747,-0.24066 0.909601,-0.50745 1.357003,-0.80038 v 0 c 0.457007,-0.2924 0.899854,-0.61169 1.328076,-0.95695 v 0 c 0.146206,-0.11499 0.286893,-0.22978 0.422985,-0.34512 v 0 c 0.0777,-0.0734 0.155403,-0.14117 0.23356,-0.20393 v 0 c 0.330577,-0.30344 0.641836,-0.62197 0.933652,-0.95694 v 0 c 0.05839,-0.0733 0.11678,-0.14686 0.175168,-0.2195 v 0 c 0.632087,-0.7844 1.103718,-1.67347 1.415298,-2.66717 v 0 c 0.08733,-0.28229 0.155403,-0.5699 0.204135,-0.86259 v 0 c 0.0184,-0.14678 0.03221,-0.2929 0.04595,-0.43966 v 0 c 0.0092,-0.15633 0.01382,-0.30807 0.01382,-0.45473 v 0 c -0.03679,-1.34883 -0.413794,-2.55711 -1.123443,-3.62373 v 0 c -0.09748,-0.13567 -0.194937,-0.27188 -0.291948,-0.40787 v 0 c -0.04872,-0.0734 -0.09702,-0.14114 -0.145747,-0.20408 v 0 c -0.204135,-0.27176 -0.422986,-0.52805 -0.6565,-0.76887 v 0 c -0.583626,-0.61693 -1.206334,-1.16075 -1.867755,-1.63145 v 0 c -0.778478,-0.55412 -1.585687,-1.05086 -2.422185,-1.49006 v 0 c -0.107125,-0.0523 -0.21425,-0.10433 -0.32138,-0.15722 v 0 c -0.953415,-0.47049 -1.935752,-0.87813 -2.947189,-1.22318 v 0 c -0.146206,-0.0405 -0.291952,-0.0892 -0.438158,-0.14138 v 0 c -0.272642,-0.0832 -0.544917,-0.16732 -0.817187,-0.25097 v 0 c -0.06804,-0.0193 -0.131037,-0.0356 -0.189425,-0.0469 v 0 c -1.109002,-0.31343 -2.21782,-0.57511 -3.327006,-0.78398 v 0 c -0.768501,-0.13591 -1.54169,-0.25626 -2.319977,-0.36111 v 0 c -0.155403,-0.0193 -0.311265,-0.036 -0.466944,-0.0472 v 0 c -0.311258,-0.0405 -0.622524,-0.0731 -0.933874,-0.0937 v 0 c 0.340684,-0.0631 0.680956,-0.12589 1.021647,-0.18854 v 0 c 0.165512,-0.0306 0.335631,-0.0627 0.510524,-0.0945 v 0 c 0.505605,-0.10438 1.006931,-0.22493 1.50279,-0.36078 v 0 c 0.505836,-0.13606 1.006978,-0.28258 1.503249,-0.43968 v 0 c 1.147488,-0.37645 2.261544,-0.84683 3.341219,-1.41187 v 0 c 0.194478,-0.0945 0.388957,-0.19836 0.583808,-0.31359 v 0 c 0.126436,-0.0727 0.257468,-0.14595 0.394019,-0.21923 v 0 c 0.08733,-0.0627 0.175172,-0.11996 0.262528,-0.17281 v 0 c 0.233101,-0.14678 0.461837,-0.30328 0.685833,-0.47049 v 0 c 0.126436,-0.0836 0.247812,-0.17278 0.364592,-0.26661 v 0 c 0.126437,-0.0945 0.248276,-0.19312 0.365056,-0.29781 v 0 c 0.05794,-0.0526 0.116781,-0.10477 0.175168,-0.15723 v 0 c 0.233566,-0.19846 0.452411,-0.41298 0.656505,-0.6432 v 0 c 0.107124,-0.11498 0.209189,-0.22969 0.306663,-0.345 v 0 c 0.09702,-0.12568 0.189419,-0.25097 0.277238,-0.37677 v 0 c 0.04824,-0.0627 0.09702,-0.12514 0.146206,-0.18831 v 0 c 0.08734,-0.12501 0.170113,-0.25592 0.247812,-0.39172 v 0 c 0.03679,-0.0627 0.07312,-0.13119 0.10207,-0.2041 v 0 c 0.08778,-0.1673 0.170113,-0.34011 0.248271,-0.51774 v 0 c 0.03679,-0.073 0.07312,-0.15684 0.102529,-0.25085 v 0 c 0.03679,-0.0945 0.07312,-0.19844 0.102069,-0.3139 v 0 c 0.0092,0 0.01381,-0.004 0.01381,-0.0173 v 0 -0.0174 c 0.03679,-0.11515 0.06801,-0.22489 0.08733,-0.32925 v 0 c 0.03679,-0.17739 0.07312,-0.36111 0.10207,-0.54909 v 0 c 0.01839,-0.19855 0.02756,-0.39225 0.02756,-0.58079 v 0 c -0.0092,-0.72118 -0.150808,-1.39044 -0.422986,-2.0076 v 0 c -0.02756,-0.0734 -0.05794,-0.14111 -0.08782,-0.20403 v 0 c -0.05839,-0.12573 -0.11678,-0.24591 -0.175168,-0.36111 v 0 c -0.262528,-0.47069 -0.578893,-0.90987 -0.948315,-1.31776 v 0 c -0.03679,-0.0522 -0.08275,-0.10397 -0.131497,-0.15664 v 0 c -0.09748,-0.10397 -0.199532,-0.20889 -0.306198,-0.31359 v 0 c -0.07816,-0.0733 -0.155862,-0.14626 -0.233566,-0.21951 v 0 c -0.07816,-0.0733 -0.155856,-0.14677 -0.23356,-0.21949 v 0 c -0.04826,-0.0411 -0.102065,-0.0838 -0.160458,-0.12566 v 0 c -0.107124,-0.0944 -0.214249,-0.18289 -0.320915,-0.26689 v 0 c -0.04873,-0.0403 -0.10207,-0.0829 -0.160458,-0.12508 v 0 c -0.107129,-0.0833 -0.218849,-0.16732 -0.335631,-0.25093 v 0 c -0.661605,-0.45997 -1.352126,-0.87309 -2.071981,-1.23914 v 0 c -0.09747,-0.0522 -0.189424,-0.0994 -0.277238,-0.14113 v 0 c -0.45747,-0.2195 -0.919211,-0.41826 -1.386337,-0.59636 v 0 c -0.184823,-0.0727 -0.374706,-0.14678 -0.568957,-0.21951 v 0 c -0.758936,-0.27176 -1.527253,-0.50684 -2.305547,-0.70605 v 0 c -0.476731,-0.12512 -0.958287,-0.24007 -1.444397,-0.34495 v 0 c -0.291954,-0.0627 -0.583627,-0.12015 -0.875626,-0.17232 v 0 c -0.943623,-0.16748 -1.88725,-0.2982 -2.830695,-0.39244 v 0 c -0.37929,-0.0405 -0.75889,-0.0731 -1.13805,-0.0941 v 0 c -0.19449,-0.0195 -0.3844,-0.036 -0.56921,-0.047 v 0 c -0.15541,0 -0.31128,-0.004 -0.46673,-0.0174 v 0 h -0.0871 -0.0582 c -0.10717,-0.0109 -0.21427,-0.0171 -0.32137,-0.0171 v 0 h -0.17471 c -0.0876,-0.011 -0.18022,-0.0174 -0.27724,-0.0174 v 0 h -0.20464 -0.0275 -0.0275 -0.16051 -0.0728 -0.13106 -0.0458 -0.0275 l -4.27507,-0.0173 z m 5.1363,40.5205 c -0.22389,-0.15663 -0.43311,-0.32936 -0.62765,-0.51732 v 0 c -0.93381,-0.92039 -1.48829,-2.12321 -1.66324,-3.60839 v 0 -0.0627 -16.26773 -0.43949 -0.62722 -0.0944 -0.62745 -2.32216 -10.90246 c 0,-0.0523 0.004,-0.0994 0.0137,-0.14145 v 0 c 0.0275,-0.29229 0.0724,-0.56969 0.13099,-0.83128 v 0 c 0.0875,-0.36591 0.20464,-0.71657 0.34991,-1.05107 v 0 c 0.0366,-0.0734 0.0779,-0.1518 0.11678,-0.23522 v 0 c 0.43769,-0.89956 1.04552,-1.59996 1.82397,-2.10215 v 0 c 0.3209,-0.0194 0.64673,-0.0307 0.97769,-0.0307 v 0 c 0.33052,-0.0109 0.65666,-0.0173 0.97761,-0.0173 v 0 c 0.33059,0 0.66141,0.004 0.99226,0.0173 v 0 c 0.15541,0 0.31586,0.004 0.48128,0.0173 v 0 c 0.16549,0.0109 0.33052,0.0195 0.49622,0.0307 v 0 h 0.13145 c 0.25288,0.0194 0.50545,0.036 0.75861,0.0473 v 0 c 0.1848,0.0193 0.43768,0.0468 0.7589,0.0784 v 0 c 0.47631,0.0405 0.953018,0.0941 1.429749,0.15666 v 0 c 0.486478,0.0735 0.968033,0.15182 1.44477,0.23523 v 0 c 0.320916,0.0627 0.64183,0.12563 0.962751,0.1883 v 0 c 1.916395,0.7216 3.453436,1.80167 4.611085,3.23939 v 0 c 1.157458,1.43817 1.755755,3.08264 1.794835,4.93347 v 0 0.0174 c 0,1.77814 -0.557236,3.38333 -1.670698,4.81602 v 0 c -1.114062,1.43289 -2.58522,2.52052 -4.414078,3.26313 v 0 h -0.02756 c -0.0092,0 -0.0184,0.005 -0.02756,0.0173 v 0 c -0.476914,0.10463 -0.948729,0.19845 -1.415437,0.28229 v 0 c -0.223904,0.0411 -0.44781,0.079 -0.67121,0.11011 v 0 c -0.681146,0.11525 -1.366787,0.20407 -2.057497,0.26659 v 0 c -0.0183,0 -0.0367,0.005 -0.0582,0.0173 v 0 c -0.0183,0 -0.0458,0.004 -0.0728,0.0173 v 0 c -0.0183,0.0109 -0.0412,0.0196 -0.0582,0.0306 v 0 c -0.12644,0.0838 -0.18987,0.19855 -0.18987,0.34531 v 0 c 0,0.15671 0.0632,0.27709 0.18987,0.36096 v 0 c 0.0366,0.0195 0.0774,0.036 0.11676,0.0472 v 0 h 0.0582 c 0.65182,0.0306 1.298761,0.0734 1.940823,0.12499 v 0 c 0.262528,0.0194 0.520271,0.0471 0.773419,0.0786 v 0 c 0.291494,0.0194 0.583584,0.0523 0.875395,0.0945 v 0 c 0.437701,0.0525 0.88013,0.11561 1.327898,0.18856 v 0 c 0.291953,0.0405 0.583626,0.089 0.875442,0.14071 v 0 c 0.145743,0.0197 0.291948,0.047 0.437695,0.0784 v 0 c 1.828674,0.59594 3.433718,1.38833 4.815133,2.377 v 0 c 1.381272,0.98804 2.463473,2.12549 3.246637,3.41169 v 0 c 0.782982,1.28622 1.174656,2.66153 1.174656,4.12573 v 0 0.14109 c -0.05839,1.77814 -0.659256,3.40959 -1.80205,4.89459 v 0 c -1.143167,1.48501 -2.689773,2.72687 -4.640192,3.72563 v 0 c -1.95042,0.99918 -4.170906,1.66046 -6.660956,1.98448 v 0 c -0.399078,0.0405 -0.802523,0.0734 -1.211022,0.0945 v 0 c -0.262985,0.0196 -0.525368,0.036 -0.788008,0.0472 v 0 h -0.0138 -0.0137 c -0.26205,0.0111 -0.52511,0.0193 -0.78757,0.0307 v 0 c -0.13655,0 -0.27265,0.004 -0.40875,0.0169 v 0 h -0.7296 c -1.36193,0 -2.71896,-0.068 -4.07087,-0.2041"
       style="fill:url(#linearGradient5);stroke:none;stroke-width:0.202658" />
    <path
       id="path10"
       d="m 58.068674,172.14648 c -2.577766,0.59636 -4.76175,1.89813 -6.551296,3.90613 v 0 c -1.790149,2.00824 -2.903838,4.41363 -3.341631,7.21633 v 0 c -0.09702,0.6903 -0.146206,1.38033 -0.146206,2.07064 v 0 0.0171 c 0.0184,2.86558 0.797652,5.47521 2.334693,7.82803 v 0 c 1.517461,2.23834 3.482318,3.84352 5.894984,4.81643 v 0 c 2.529128,0.95125 5.058076,1.05567 7.587614,0.31346 v 0 c 2.529126,-0.74262 4.654676,-2.21712 6.376403,-4.42393 v 0 c 1.65369,-2.18578 2.592442,-4.68004 2.816255,-7.48277 v 0 c 0.184823,-2.89708 -0.413788,-5.58506 -1.794836,-8.06357 v 0 c -1.352127,-2.35306 -3.195418,-4.11018 -5.530112,-5.27093 v 0 c -1.67617,-0.79072 -3.392615,-1.18577 -5.149933,-1.18577 v 0 c -0.823026,0 -1.655249,0.087 -2.496118,0.26005 m -1.23309,24.28405 c -1.103902,-1.13976 -1.986741,-2.68214 -2.648164,-4.62753 v 0 c -0.661605,-1.94541 -0.992314,-4.09483 -0.992314,-6.44768 v 0 c 0,-2.36334 0.330571,-4.51803 0.992314,-6.46321 v 0 c 0.661423,-1.94519 1.544262,-3.48797 2.648164,-4.62792 v 0 c 1.104126,-1.13997 2.34209,-1.72541 3.713575,-1.75671 v 0 h 0.01381 c 1.361875,0.0306 2.597129,0.61674 3.706132,1.75671 v 0 c 1.109185,1.13995 1.994185,2.68273 2.655791,4.62792 v 0 c 0.661423,1.94518 0.992085,4.09987 0.992085,6.46321 v 0 c 0,2.35285 -0.330571,4.50227 -0.992085,6.44768 v 0 c -0.661606,1.94539 -1.544446,3.48777 -2.648394,4.62753 v 0 c -1.104079,1.14016 -2.341861,1.72598 -3.713529,1.75732 v 0 h -0.01381 c -1.371485,-0.0306 -2.609449,-0.61716 -3.713575,-1.75732"
       style="fill:url(#linearGradient10);stroke:none;stroke-width:0.202658" />
    <path
       id="path15"
       d="m 94.766384,172.05233 c -0.01977,0.0307 -0.0345,0.0575 -0.04412,0.0784 v 0 c -0.02893,0.0735 -0.05826,0.14132 -0.08751,0.20377 v 0 h -0.01473 v 0.0174 c -0.0096,0.0195 -0.02435,0.0468 -0.04366,0.0784 v 0 c 0,0.0109 -0.005,0.0194 -0.01473,0.0306 v 0 c -0.01011,0.0109 -0.01427,0.0195 -0.01427,0.0307 v 0 c -0.01977,0.0411 -0.03908,0.0784 -0.05844,0.11003 v 0 c -0.01977,0.0306 -0.03404,0.0578 -0.04366,0.0786 v 0 c -0.0096,0.0194 -0.01977,0.036 -0.02894,0.0469 v 0 c -0.0101,0.0109 -0.01931,0.0254 -0.02943,0.0466 v 0 c -0.0096,0.0197 -0.02435,0.0472 -0.04366,0.079 v 0 c -0.01009,0.0109 -0.01977,0.0254 -0.0294,0.047 v 0 c 0,0.0109 -0.005,0.0173 -0.01427,0.0173 v 0 c -0.03908,0.0735 -0.07798,0.14102 -0.116878,0.20407 v 0 c -0.01977,0.0194 -0.03908,0.0472 -0.05826,0.0786 v 0 c -0.03908,0.0623 -0.07816,0.12016 -0.116688,0.17226 v 0 c -0.01011,0.0109 -0.01473,0.0194 -0.01473,0.0306 v 0 c -0.0096,0.011 -0.02435,0.0254 -0.04366,0.0472 v 0 c -0.05807,0.0837 -0.116688,0.16178 -0.175121,0.23533 v 0 c -0.01931,0.0303 -0.03862,0.0574 -0.05826,0.0782 v 0 c -0.262476,0.30329 -0.564263,0.55411 -0.904544,0.7529 v 0 c -0.068,0.0411 -0.141101,0.0838 -0.218897,0.12516 v 0 c -0.01931,0.011 -0.04366,0.0197 -0.07294,0.031 v 0 c -0.0096,0 -0.01473,0.004 -0.01473,0.0173 v 0 c -0.340456,0.14687 -0.705384,0.23522 -1.094334,0.26659 v 0 h -0.01427 -0.05862 -0.145788 c -0.476703,0 -0.924097,-0.0989 -1.342356,-0.29789 v 0 c -0.01931,-0.0109 -0.03908,-0.0193 -0.05862,-0.0307 v 0 c -0.04868,-0.0109 -0.09734,-0.0173 -0.145611,-0.0173 v 0 c -0.126665,0 -0.231217,0.0436 -0.314061,0.13313 v 0 c -0.08229,0.0892 -0.123725,0.2015 -0.123725,0.33733 v 0 c 0,0.17748 0.07294,0.31344 0.218712,0.40754 v 0 c 0.02939,0.0194 0.06311,0.036 0.102019,0.0472 v 0 c 0.564082,0.24062 1.167436,0.30377 1.809486,0.18831 v 0 5.3178 7.29491 1.53733 0.94117 h -0.0294 c 0.0096,0.0195 0.01931,0.0472 0.0294,0.0786 v 0 2.36901 c -0.175121,0.60624 -0.437603,1.17633 -0.787861,1.70942 v 0 c -0.311358,0.47092 -0.666485,0.88928 -1.065013,1.25512 v 0 c -0.185282,0.16794 -0.37489,0.32445 -0.569348,0.47069 v 0 c -0.933668,0.6802 -1.964871,1.12462 -3.093202,1.33328 v 0 c -1.060527,0 -2.026079,-0.24544 -2.896599,-0.73693 v 0 c -0.870571,-0.49176 -1.566382,-1.15345 -2.086652,-1.98496 v 0 c -0.520499,-0.83127 -0.780638,-1.74912 -0.780638,-2.75293 v 0 -1.74134 -4.54957 -0.72158 -13.6949 0.0173 -0.0173 c -0.281832,0.67978 -0.64183,1.29168 -1.079485,1.83571 v 0 0.0171 h -0.01381 c -0.05427,0.0669 -0.108505,0.13018 -0.162755,0.18831 v 0 c -0.291954,0.31346 -0.622524,0.56462 -0.992131,0.75269 v 0 c -0.437693,0.20953 -0.904729,0.3139 -1.400818,0.3139 v 0 c -0.476685,0 -0.924264,-0.0941 -1.342333,-0.28229 v 0 c -0.02756,-0.0193 -0.05335,-0.036 -0.07312,-0.0469 v 0 c -0.04872,-0.0109 -0.09702,-0.0173 -0.145748,-0.0173 v 0 c -0.11678,0 -0.21885,0.0436 -0.306663,0.13313 v 0 c -0.08784,0.0892 -0.131495,0.2017 -0.131495,0.33742 v 0 c 0,0.17748 0.07771,0.31347 0.233559,0.40755 v 0 c 0.02756,0.0195 0.05839,0.036 0.08733,0.0472 v 0 c 0.564274,0.24047 1.167441,0.30377 1.809506,0.18831 v 0 5.3178 11.04427 c 0.107125,1.2026 0.479075,2.27722 1.116217,3.22343 v 0 c 0.636964,0.94685 1.437137,1.71278 2.400163,2.29842 v 0 c 0.50579,0.31358 1.040776,0.56463 1.605227,0.75289 v 0 c 1.527072,0.50223 3.076203,0.56988 4.647259,0.20414 v 0 c 1.571036,-0.36592 2.920621,-1.16098 4.049155,-2.38457 v 0 c 0.379583,-0.41805 0.705389,-0.87836 0.977649,-1.38036 v 0 0.25085 0.0307 0.017 0.017 c 0,0.20914 0.01427,0.41301 0.04412,0.61169 v 0 c 0.0096,0.0111 0.01473,0.025 0.01473,0.0472 v 0 c 0.0092,0.0307 0.01427,0.0574 0.01427,0.0784 v 0 0.017 0.017 l 0.01473,0.0169 v 0.0173 c 0.0092,0.0196 0.01473,0.0469 0.01473,0.0786 v 0 c 0.0092,0.0523 0.02389,0.0994 0.04366,0.14071 v 0 c 0.0092,0.0307 0.01427,0.0578 0.01427,0.0783 v 0 l 0.01427,0.017 c 0.01009,0.0411 0.01977,0.0836 0.02942,0.12566 v 0 c 0.0096,0.0306 0.01931,0.0579 0.02896,0.0784 v 0 l 0.01473,0.0173 v 0.017 0.017 c 0.0096,0 0.01427,0.004 0.01427,0.017 v 0 0.0173 l 0.02945,0.0627 v 0.017 h 0.01473 v 0.0169 c 0.0092,0.0197 0.01931,0.0469 0.02893,0.0786 v 0 c 0,0.0111 0.0046,0.017 0.01473,0.017 v 0 c 0.0092,0.0307 0.02389,0.068 0.04366,0.11009 v 0 l 0.01427,0.017 v 0.0169 c 0.0096,0.0112 0.01473,0.0196 0.01473,0.0307 v 0 l 0.01473,0.0173 c 0,0.0111 0.0046,0.0196 0.01473,0.0307 v 0 0.017 c 0.0096,0.0111 0.01931,0.025 0.02897,0.0472 v 0 l 0.01473,0.017 v 0.017 h 0.01427 c 0.0096,0.0196 0.01977,0.0469 0.02942,0.0782 v 0 h 0.01427 c 0.0096,0.0197 0.01931,0.0411 0.0294,0.0629 v 0 c 0.0092,0.0111 0.01931,0.0196 0.02893,0.0306 v 0 l 0.02945,0.0628 0.01473,0.0173 0.01427,0.0169 c 0.01931,0.0307 0.03908,0.0578 0.05844,0.0783 v 0 0.017 c 0.0096,0.0111 0.01473,0.0196 0.01473,0.0306 v 0 c 0.01977,0.0196 0.03862,0.0411 0.05844,0.0631 v 0 l 0.01473,0.017 c 0.0096,0.0196 0.02389,0.036 0.0432,0.0469 v 0 c 0,0.0111 0.005,0.0169 0.01473,0.0169 v 0 0.017 l 0.01473,0.017 c 0.0096,0.0112 0.01931,0.0197 0.02893,0.0307 v 0 c 0.01009,0.0196 0.02389,0.036 0.04412,0.0469 v 0 0.017 h 0.01473 c 0.0092,0.0111 0.01473,0.0196 0.01473,0.0307 v 0 c 0.0092,0 0.01427,0.004 0.01427,0.017 v 0 c 0.0294,0.0193 0.05335,0.0472 0.07271,0.0784 v 0 c 0.01931,0.0111 0.03404,0.0254 0.04412,0.0469 v 0 c 0.01931,0.0111 0.03404,0.0196 0.04366,0.0306 v 0 c 0.0096,0 0.01473,0.004 0.01473,0.017 v 0 c 0.01931,0.0111 0.03862,0.025 0.05844,0.0472 v 0 c 0.0096,0.0111 0.01931,0.0193 0.02847,0.0306 v 0 c 0.01009,0.0111 0.01931,0.0193 0.02939,0.0306 v 0 h 0.01473 v 0.0169 c 0.0096,0 0.01931,0.006 0.0294,0.017 v 0 c 0.01931,0.0196 0.04366,0.0405 0.07294,0.0628 v 0 h 0.01473 c 0,0.0111 0.0046,0.017 0.01427,0.017 v 0 c 0.01931,0.0111 0.03862,0.0253 0.05826,0.0472 v 0 c 0.0096,0.0111 0.02435,0.0193 0.04366,0.0307 v 0 c 0.0096,0.0111 0.01931,0.0193 0.0294,0.0307 v 0 h 0.01473 c 0.01931,0.0111 0.03404,0.0193 0.04366,0.0303 v 0 h 0.01427 v 0.017 c 0.01931,0.0112 0.03404,0.0197 0.04366,0.0306 v 0 c 0.01931,0.0111 0.03404,0.0173 0.04366,0.0173 v 0 c 0.01931,0.0196 0.03908,0.036 0.05844,0.0469 v 0 h 0.01427 l 0.01473,0.0173 h 0.01473 c 0.0092,0.0111 0.01931,0.0169 0.02941,0.0169 v 0 l 0.01473,0.0173 h 0.01427 c 0.0096,0.0111 0.02435,0.0193 0.04366,0.0307 v 0 c 0.01931,0.0111 0.03404,0.0193 0.04366,0.0306 v 0 c 0.01931,0 0.03908,0.004 0.05844,0.0169 v 0 c 0.0096,0.0112 0.01931,0.017 0.02942,0.017 v 0 c 0.0092,0 0.01427,0.004 0.01427,0.017 v 0 h 0.01473 0.01473 v 0.0173 c 0.02851,0.0111 0.05807,0.0196 0.08733,0.0306 v 0 c 0.01931,0.0111 0.03908,0.0197 0.05844,0.0307 v 0 c 0.01931,0 0.03862,0.004 0.05844,0.017 v 0 h 0.01473 c 0.01931,0.0112 0.03862,0.0196 0.05807,0.0306 v 0 h 0.01473 c 0.01977,0.0111 0.03908,0.017 0.05844,0.017 v 0 c 0.02896,0.0111 0.06311,0.0193 0.102438,0.0306 v 0 c 0.04828,0.0193 0.09697,0.036 0.145793,0.0466 v 0 c 0.07761,0.0197 0.160458,0.0366 0.248041,0.0472 v 0 h 0.01427 l 0.01473,0.017 h 0.05821 c 0.06798,0.0111 0.131356,0.017 0.189791,0.017 v 0 0.017 h 0.07294 0.05844 0.02896 0.05862 0.04321 0.01473 4.713103 c -1.206321,0 -2.247097,-0.45745 -3.122716,-1.37257 v 0 c -0.8753,-0.91492 -1.400869,-2.07336 -1.575991,-3.47473 v 0 -0.0171 c -0.0096,-0.0193 -0.01427,-0.036 -0.01427,-0.0472 v 0 -0.11009 c 0,-0.0109 -0.005,-0.0193 -0.01473,-0.0306 v 0 -21.93079 c -0.01931,0.0734 -0.04321,0.1412 -0.07271,0.20391 m -15.800218,1.64222 c 0.0092,-6e-4 0.01381,-0.005 0.01381,-0.0171 v 0 c -0.0042,0.004 -0.0092,0.0107 -0.01381,0.0171 m -0.0026,2.1e-4 h 0.0024 c 1.83e-4,0 1.83e-4,-2.1e-4 1.83e-4,-2.1e-4 v 0 c -7.79e-4,2.1e-4 -0.0016,2.1e-4 -0.0026,2.1e-4"
       style="fill:url(#linearGradient15);stroke:none;stroke-width:0.202658" />
    <path
       id="path20"
       d="m 111.8236,138.92049 c -2.35383,0.49172 -4.49616,1.5216 -6.42721,3.09065 v 0 c -1.93126,1.56862 -3.33421,3.57138 -4.20964,6.00806 v 0 c -0.71984,2.19629 -0.89496,4.44488 -0.52556,6.74562 v 0 c 0.0198,0.1567 0.0486,0.31938 0.0878,0.48647 v 0 h -0.0143 c 0.2234,0.97227 0.46204,1.80125 0.71476,2.48628 v 0 c 0.25273,0.68501 0.5887,1.34398 1.00697,1.97669 v 0 c 0.41824,0.63313 0.93386,1.11644 1.54679,1.45117 v 0 0.0171 c 0.029,0.011 0.053,0.0195 0.0729,0.0306 v 0 h 0.0147 c 0.32073,0.14678 0.6708,0.23062 1.05055,0.25084 v 0 -0.0174 c 0.2525,0.0194 0.51033,0.004 0.77301,-0.0469 v 0 10.19662 h -4.96094 -2.217976 c -0.116872,0 -0.196823,0.0527 -0.240775,0.15723 v 0 c -0.04366,0.105 -0.04366,0.20916 0,0.31371 v 0 c 0.04412,0.10451 0.123903,0.157 0.240775,0.157 v 0 h 6.026156 1.15277 v 19.38986 c 0,1.47428 0.32325,2.79748 0.97041,3.96876 v 0 c 0.64694,1.17127 1.49559,2.03933 2.54614,2.60415 v 0 c 0.7005,0.37646 1.44477,0.56462 2.23264,0.56462 v 0 c 1.15745,0 2.20331,-0.38193 3.13738,-1.14521 v 0 c 0.91392,-0.74238 1.60954,-1.73065 2.08624,-2.96474 v 0 c 0.01,-0.0306 0.0147,-0.0682 0.0147,-0.11014 v 0 c 0,-0.0522 -0.01,-0.0991 -0.0294,-0.14073 v 0 c -0.0487,-0.0945 -0.12625,-0.15152 -0.23338,-0.17248 v 0 h -0.029 c -0.12643,0 -0.21912,0.0627 -0.27714,0.18809 v 0 0.0173 0.017 c 0,0.0111 -0.006,0.017 -0.0147,0.017 v 0 c -0.0583,0.23004 -0.1411,0.4442 -0.24805,0.6432 v 0 c -0.16556,0.32433 -0.3645,0.60645 -0.59807,0.84684 v 0 c -0.34069,0.33463 -0.71047,0.5806 -1.10919,0.73734 v 0 c -0.13623,0.0627 -0.27714,0.10488 -0.42294,0.12583 v 0 c -0.0198,0.0112 -0.0391,0.017 -0.0584,0.017 v 0 c -0.14579,0.0303 -0.29181,0.0466 -0.4376,0.0466 v 0 c -0.36041,0 -0.70558,-0.0782 -1.03609,-0.2351 v 0 c -0.0584,-0.0193 -0.11687,-0.0468 -0.17531,-0.0784 v 0 c -0.0289,-0.0111 -0.0583,-0.025 -0.0873,-0.0468 v 0 c -0.0198,-0.0112 -0.0441,-0.0254 -0.0733,-0.0472 v 0 c -0.0289,-0.0109 -0.0533,-0.0193 -0.0727,-0.0307 v 0 c -0.76851,-0.502 -1.38868,-1.30722 -1.8605,-2.41568 v 0 c -0.47222,-1.10821 -0.70814,-2.36901 -0.70814,-3.78089 v 0 -5.20831 -12.80057 h 4.94687 2.20312 c 0.12625,0 0.21168,-0.0523 0.25526,-0.15701 v 0 c 0.0437,-0.10457 0.0437,-0.20888 0,-0.31367 v 0 c -0.0437,-0.10408 -0.12901,-0.15725 -0.25526,-0.15725 v 0 h -6.02631 -1.12366 v -4.8786 -0.43926 -8.73768 c -0.28225,0.66904 -0.64185,1.28118 -1.07967,1.83509 v 0 h -0.0147 c -0.32092,0.40786 -0.70519,0.722 -1.15277,0.94139 v 0 c -0.43761,0.21951 -0.90963,0.32953 -1.41526,0.32953 v 0 c -0.21402,0 -0.42823,-0.0254 -0.64186,-0.0784 v 0 c -0.0682,0 -0.27967,-0.0916 -0.63463,-0.27463 v 0 c -0.35536,-0.18276 -0.76636,-0.51001 -1.2333,-0.98072 v 0 c -0.46693,-0.47069 -0.89985,-1.14498 -1.29857,-2.02334 v 0 c -0.17513,-0.41851 -0.32092,-0.8523 -0.43779,-1.30219 v 0 c -0.56427,-2.15427 -0.61274,-4.31925 -0.14579,-6.49474 v 0 c 0.57384,-2.39444 1.70237,-4.42116 3.38501,-6.07889 v 0 c 1.68323,-1.65729 3.6092,-2.82606 5.77812,-3.50581 v 0 c 2.2084,-0.6798 4.43107,-0.81804 6.66859,-0.41616 v 0 c 2.23733,0.40288 4.32397,1.25301 6.25952,2.54951 v 0 c 1.91639,1.286 3.51205,2.9282 4.78598,4.9259 v 0 c 1.24523,2.0181 2.04777,4.2249 2.4076,6.62019 v 0 c 0.35043,2.40536 0.27011,4.80003 -0.24041,7.18461 v 0 c -0.51071,2.3846 -1.43739,4.56008 -2.77994,6.52627 v 0 l -0.0147,0.0174 c -0.0684,-0.57559 -0.2988,-1.05404 -0.69325,-1.43566 v 0 c -0.39402,-0.38366 -0.8633,-0.57435 -1.40802,-0.57435 v 0 c -0.59339,0 -1.09648,0.2222 -1.51006,0.66655 v 0 c -0.41356,0.44461 -0.62016,0.98068 -0.62016,1.60791 v 0 c 0,0.62766 0.20657,1.16392 0.62016,1.60815 v 0 c 0.41356,0.44442 0.91667,0.66674 1.51006,0.66674 v 0 c 0.8465,0 1.48367,-0.42859 1.91151,-1.28663 v 0 c 1.45943,-1.85104 2.5217,-3.93471 3.18837,-6.2512 v 0 c 0.66612,-2.31629 0.92646,-4.67731 0.78046,-7.08271 v 0 c -0.14584,-2.54192 -0.76852,-4.93678 -1.86756,-7.18541 v 0 c -1.1285,-2.21909 -2.63642,-4.09094 -4.5233,-5.61797 v 0 c -1.88727,-1.52779 -3.97625,-2.60785 -6.26694,-3.24036 v 0 c -1.33942,-0.36978 -2.68471,-0.55474 -4.03567,-0.55474 v 0 c -0.95986,0 -1.92265,0.0934 -2.88838,0.28016 m 14.37309,34.76371 v 0.0171 -0.0171 c -0.0588,0.0729 -0.11729,0.14063 -0.17513,0.20375 v 0 c -0.28243,0.31347 -0.61313,0.56463 -0.9927,0.75272 v 0 c -0.4376,0.2095 -0.90454,0.3139 -1.4004,0.3139 v 0 c -0.4771,0 -0.92449,-0.0988 -1.34236,-0.29786 v 0 c -0.0198,-0.0109 -0.0441,-0.0193 -0.0733,-0.0306 v 0 c -0.0391,-0.0109 -0.0876,-0.0173 -0.14579,-0.0173 v 0 c -0.11669,0 -0.21853,0.0436 -0.30648,0.13312 v 0 c -0.0878,0.0892 -0.13117,0.20157 -0.13117,0.33763 v 0 c 0,0.17748 0.0778,0.31346 0.23337,0.40755 v 0 c 0.029,0.0194 0.0583,0.036 0.0875,0.0472 v 0 c 0.57365,0.24067 1.17701,0.30377 1.80949,0.18831 v 0 5.3178 12.87959 c -0.16575,1.40134 -0.68838,2.56483 -1.56869,3.49048 v 0 c -0.88051,0.92543 -1.92402,1.38834 -3.13015,1.38834 v 0 h 4.69884 0.68564 2.1742 0.65671 4.72739 c -1.20613,0 -2.24964,-0.46522 -3.12958,-1.39632 v 0 c -0.88089,-0.93131 -1.40334,-2.10258 -1.56869,-3.51445 v 0 c -0.01,-0.0734 -0.0147,-0.14677 -0.0147,-0.2195 v 0 l -0.0143,-0.0171 v -12.61291 -9.19264 c -0.28243,0.67973 -0.64206,1.29163 -1.07968,1.83566"
       style="fill:url(#linearGradient20);stroke:none;stroke-width:0.202658" />
    <path
       id="path25"
       d="m 141.47353,171.73881 c -1.66331,0.37656 -3.11997,1.13178 -4.3701,2.26671 v 0 c -1.2503,1.13494 -2.25924,2.49451 -3.02773,4.07864 v 0 c -0.7685,1.58439 -1.25966,3.24994 -1.47393,4.9965 v 0 c -0.0873,0.71132 -0.13623,1.42237 -0.14579,2.13346 v 0 c 0.01,1.74707 0.28206,3.45667 0.8172,5.12992 v 0 c 0.53472,1.67331 1.32047,3.18206 2.35671,4.52586 v 0 c 1.03592,1.34376 2.31258,2.38708 3.83009,3.12989 v 0 c 2.432,1.11891 4.88819,1.18116 7.36888,0.18809 v 0 c 1.82845,-0.80547 3.34613,-2.04986 4.55246,-3.73362 v 0 10.18065 0.0171 c 0,0.0405 -0.005,0.0836 -0.0147,0.12564 v 0 c -0.16552,1.41208 -0.68582,2.58314 -1.56145,3.51403 v 0 c -0.8752,0.93089 -1.92109,1.39633 -3.13697,1.39633 v 0 h 5.38431 2.17399 5.39894 c -1.2165,0 -2.26452,-0.46544 -3.1444,-1.39633 v 0 c -0.88053,-0.93089 -1.40336,-2.10194 -1.56872,-3.51401 v 0 c 0,-0.0405 -0.005,-0.0836 -0.0143,-0.12565 v 0 -0.0307 -23.59395 -3.73363 -5.44321 c -0.28224,0.66947 -0.64206,1.2757 -1.0799,1.81971 v 0 0.0174 c -0.32106,0.39737 -0.71007,0.7109 -1.16721,0.94097 v 0 c -0.38915,0.18831 -0.8125,0.2929 -1.26944,0.31346 v 0 0.61209 0.15667 0.26664 c -0.7785,-1.07711 -1.69771,-1.98678 -2.75802,-2.7298 v 0 c -1.64886,-1.12923 -3.40145,-1.69407 -5.25824,-1.69407 v 0 c -0.61898,2.1e-4 -1.2495,0.0627 -1.89154,0.1886 m -0.39383,24.21306 c -1.07968,-1.18661 -1.93849,-2.70061 -2.57567,-4.54156 v 0 c -0.63717,-1.84058 -0.95555,-3.85888 -0.95555,-6.05515 v 0 c 0,-2.34276 0.36234,-4.48104 1.08709,-6.41638 v 0 c 0.72436,-1.93448 1.69261,-3.47997 2.9038,-4.6355 v 0 c 1.21083,-1.15572 2.56553,-1.76469 4.06364,-1.8273 v 0 c 0.5156,0.13566 1.01652,0.32433 1.50283,0.56444 v 0 c 1.76062,0.92058 3.18605,2.24858 4.2755,3.9847 v 0 16.36208 c -0.89518,1.43289 -2.0284,2.59872 -3.40006,3.49828 v 0 c -1.01166,0.63797 -2.09154,1.05635 -3.23926,1.2549 v 0 c -1.36189,-0.27188 -2.58267,-1.0013 -3.66232,-2.18851"
       style="fill:url(#linearGradient25);stroke:none;stroke-width:0.202658" />
    <path
       id="path30"
       d="m 179.30953,172.05233 c -0.0198,0.0307 -0.0345,0.0575 -0.0441,0.0784 v 0 c -0.0294,0.0735 -0.0586,0.14132 -0.0877,0.20377 v 0 h -0.0143 v 0.0174 c -0.01,0.0195 -0.0243,0.0468 -0.0437,0.0784 v 0 c 0,0.0109 -0.005,0.0194 -0.0147,0.0306 v 0 c -0.0101,0.0109 -0.0147,0.0195 -0.0147,0.0307 v 0 c -0.0198,0.0411 -0.0391,0.0784 -0.0583,0.11003 v 0 c -0.0198,0.0306 -0.034,0.0578 -0.0437,0.0786 v 0 c -0.01,0.0194 -0.0198,0.036 -0.0294,0.0469 v 0 c -0.01,0.0109 -0.0193,0.0254 -0.0289,0.0466 v 0 c -0.01,0.0197 -0.0243,0.0472 -0.0437,0.079 v 0 c -0.01,0.0109 -0.0198,0.0254 -0.029,0.047 v 0 c 0,0.0109 -0.005,0.0173 -0.0143,0.0173 v 0 c -0.0391,0.0735 -0.078,0.14102 -0.11711,0.20407 v 0 c -0.0193,0.0194 -0.0391,0.0472 -0.0578,0.0786 v 0 c -0.0395,0.0623 -0.0784,0.12016 -0.11729,0.17226 v 0 c -0.009,0.0109 -0.0143,0.0194 -0.0143,0.0306 v 0 l -0.0441,0.0472 c -0.0581,0.0837 -0.1165,0.16178 -0.17494,0.23533 v 0 c -0.0193,0.0303 -0.0391,0.0574 -0.0584,0.0782 v 0 c -0.26253,0.30329 -0.56405,0.55411 -0.90456,0.7529 v 0 c -0.068,0.0411 -0.1411,0.0838 -0.21847,0.12516 v 0 c -0.0202,0.011 -0.0441,0.0197 -0.0733,0.031 v 0 c -0.01,0 -0.0143,0.004 -0.0143,0.0173 v 0 c -0.34064,0.14687 -0.70539,0.23522 -1.09431,0.26659 v 0 h -0.0147 -0.0584 -0.1458 c -0.47651,0 -0.92408,-0.0989 -1.34236,-0.29789 v 0 c -0.0198,-0.0109 -0.0391,-0.0193 -0.0584,-0.0307 v 0 c -0.0489,-0.0109 -0.0975,-0.0173 -0.14584,-0.0173 v 0 c -0.12684,0 -0.23098,0.0436 -0.31388,0.13313 v 0 c -0.0825,0.0892 -0.12395,0.2015 -0.12395,0.33733 v 0 c 0,0.17748 0.0731,0.31344 0.21889,0.40754 v 0 c 0.029,0.0194 0.0629,0.036 0.10203,0.0472 v 0 c 0.56405,0.24062 1.16743,0.30377 1.80928,0.18831 v 0 5.3178 7.29491 1.53733 0.94117 h -0.029 c 0.01,0.0195 0.0198,0.0472 0.029,0.0786 v 0 2.36901 c -0.1749,0.60624 -0.43756,1.17633 -0.78766,1.70942 v 0 c -0.31154,0.47092 -0.66649,0.88928 -1.06522,1.25512 v 0 c -0.18492,0.16794 -0.37467,0.32445 -0.56913,0.47069 v 0 c -0.93369,0.6802 -1.96509,1.12462 -3.09345,1.33328 v 0 c -1.06029,0 -2.02601,-0.24544 -2.89634,-0.73693 v 0 c -0.87075,-0.49188 -1.56637,-1.15357 -2.08666,-1.98508 v 0 c -0.52066,-0.83128 -0.78062,-1.74913 -0.78062,-2.75294 v 0 -1.74134 -4.54957 -0.72157 -13.69491 0.0174 -0.0174 c -0.28243,0.67978 -0.64189,1.29168 -1.07946,1.83571 v 0 0.0171 h -0.0124 c -0.0546,0.0669 -0.10882,0.13018 -0.16303,0.18831 v 0 c -0.29181,0.31345 -0.62266,0.56461 -0.99207,0.75268 v 0 c -0.43779,0.20953 -0.90496,0.3139 -1.40102,0.3139 v 0 c -0.47667,0 -0.92428,-0.0941 -1.34255,-0.28229 v 0 c -0.0289,-0.0193 -0.0534,-0.036 -0.0725,-0.0469 v 0 c -0.0493,-0.0109 -0.0975,-0.0173 -0.14602,-0.0173 v 0 c -0.11669,0 -0.21913,0.0436 -0.30644,0.13313 v 0 c -0.0875,0.0892 -0.13154,0.20169 -0.13154,0.33743 v 0 c 0,0.17747 0.078,0.31345 0.23356,0.40754 v 0 c 0.0294,0.0195 0.0584,0.036 0.0877,0.0472 v 0 c 0.5639,0.24048 1.16726,0.30377 1.80932,0.18831 v 0 5.3178 11.04428 c 0.10689,1.20261 0.47866,2.27722 1.1162,3.22343 v 0 c 0.63678,0.94686 1.43718,1.71278 2.40016,2.29842 v 0 c 0.506,0.31359 1.04096,0.56463 1.60524,0.7529 v 0 c 1.52701,0.50222 3.07619,0.56987 4.64724,0.20413 v 0 c 1.57102,-0.36592 2.92041,-1.16098 4.04935,-2.38457 v 0 c 0.37917,-0.41805 0.70499,-0.87836 0.97724,-1.38036 v 0 0.25085 0.0307 0.017 0.017 c 0,0.20914 0.0147,0.41301 0.0441,0.61169 v 0 c 0.01,0.0111 0.0143,0.025 0.0143,0.0472 v 0 c 0.01,0.0306 0.0147,0.0574 0.0147,0.0784 v 0 0.017 0.017 l 0.0143,0.0169 v 0.0173 c 0.01,0.0196 0.0147,0.0469 0.0147,0.0786 v 0 c 0.01,0.0523 0.0243,0.0994 0.0441,0.14071 v 0 c 0.01,0.0307 0.0147,0.0578 0.0147,0.0783 v 0 l 0.0143,0.017 c 0.01,0.0411 0.0198,0.0836 0.029,0.12566 v 0 c 0.01,0.0306 0.0198,0.0579 0.0294,0.0783 v 0 l 0.0147,0.0173 v 0.017 0.017 c 0.01,0 0.0143,0.004 0.0143,0.017 v 0 0.0173 c 0.0101,0.0196 0.0198,0.0405 0.0294,0.0627 v 0 0.017 h 0.0147 v 0.0169 c 0.009,0.0197 0.0198,0.0469 0.029,0.0786 v 0 c 0,0.0111 0.005,0.017 0.0147,0.017 v 0 c 0.01,0.0307 0.0243,0.068 0.0437,0.11009 v 0 l 0.0143,0.017 v 0.0169 c 0.01,0.0112 0.0147,0.0196 0.0147,0.0307 v 0 l 0.0143,0.0173 c 0,0.0111 0.005,0.0196 0.0147,0.0307 v 0 0.017 c 0.01,0.0111 0.0198,0.025 0.029,0.0471 v 0 l 0.0147,0.017 v 0.017 h 0.0147 c 0.009,0.0196 0.0198,0.0469 0.029,0.0782 v 0 h 0.0147 c 0.01,0.0197 0.0193,0.0411 0.029,0.0629 v 0 c 0.01,0.0111 0.0193,0.0196 0.0289,0.0306 v 0 l 0.029,0.0628 0.0147,0.0173 0.0147,0.0169 c 0.0198,0.0307 0.0391,0.0578 0.0583,0.0783 v 0 0.017 c 0.01,0.0111 0.0147,0.0196 0.0147,0.0306 v 0 c 0.0198,0.0196 0.0386,0.0411 0.0584,0.0631 v 0 l 0.0147,0.017 c 0.009,0.0196 0.0239,0.036 0.0437,0.0469 v 0 c 0,0.0111 0.005,0.0169 0.0147,0.0169 v 0 0.017 l 0.0143,0.017 c 0.0101,0.0112 0.0198,0.0197 0.0294,0.0307 v 0 c 0.01,0.0196 0.0243,0.036 0.0437,0.0469 v 0 0.017 h 0.0147 c 0.009,0.0111 0.0147,0.0196 0.0147,0.0307 v 0 c 0.01,0 0.0147,0.004 0.0147,0.017 v 0 c 0.029,0.0193 0.0533,0.0472 0.0726,0.0784 v 0 c 0.0198,0.0111 0.0345,0.0254 0.0441,0.0469 v 0 c 0.0198,0.0111 0.034,0.0196 0.0441,0.0306 v 0 c 0.01,0 0.0147,0.004 0.0147,0.017 v 0 c 0.0198,0.0111 0.0386,0.025 0.0584,0.0472 v 0 c 0.01,0.0111 0.0193,0.0193 0.029,0.0306 v 0 l 0.029,0.0307 h 0.0147 v 0.0169 c 0.01,0 0.0193,0.006 0.029,0.017 v 0 c 0.0198,0.0196 0.0437,0.0405 0.0731,0.0628 v 0 h 0.0147 c 0,0.0111 0.005,0.017 0.0143,0.017 v 0 c 0.0193,0.0111 0.0391,0.0254 0.0583,0.0472 v 0 c 0.01,0.0111 0.0243,0.0193 0.0441,0.0306 v 0 l 0.029,0.0307 h 0.0143 c 0.0198,0.0111 0.034,0.0193 0.0441,0.0303 v 0 h 0.0143 v 0.017 c 0.0193,0.0112 0.0336,0.0197 0.0441,0.0306 v 0 c 0.0193,0.0111 0.0336,0.0173 0.0437,0.0173 v 0 c 0.0198,0.0196 0.0391,0.036 0.0585,0.0469 v 0 h 0.0147 l 0.0143,0.0173 h 0.0147 c 0.009,0.0111 0.0193,0.0169 0.0289,0.0169 v 0 l 0.0147,0.0173 h 0.0147 c 0.009,0.0111 0.0239,0.0193 0.0437,0.0307 v 0 c 0.0198,0.0111 0.034,0.0193 0.0441,0.0306 v 0 c 0.0193,0 0.0391,0.004 0.0584,0.0169 v 0 c 0.01,0.0112 0.0193,0.017 0.029,0.017 v 0 c 0.01,0 0.0147,0.004 0.0147,0.017 v 0 h 0.0147 0.0143 v 0.0173 c 0.029,0.0111 0.0583,0.0196 0.0876,0.0306 v 0 c 0.0198,0.0111 0.0391,0.0197 0.0583,0.0307 v 0 c 0.0198,0 0.0391,0.004 0.0584,0.017 v 0 h 0.0147 c 0.0189,0.0112 0.0386,0.0196 0.0581,0.0306 v 0 h 0.0147 c 0.0198,0.0111 0.0391,0.017 0.0583,0.017 v 0 c 0.0294,0.0111 0.0631,0.0193 0.10239,0.0306 v 0 c 0.0487,0.0193 0.0972,0.036 0.14584,0.0466 v 0 c 0.0778,0.0197 0.16027,0.0366 0.24823,0.0472 v 0 h 0.0143 l 0.0147,0.017 h 0.0578 c 0.0684,0.0111 0.13154,0.017 0.19015,0.017 v 0 0.017 h 0.0728 0.0584 0.029 0.0584 0.0437 0.0147 4.71312 c -1.20631,0 -2.24709,-0.45745 -3.12271,-1.37256 v 0 c -0.87544,-0.91546 -1.40099,-2.0739 -1.57592,-3.47528 v 0 -0.0171 c -0.01,-0.0193 -0.0143,-0.036 -0.0143,-0.0472 v 0 -0.11009 c 0,-0.0109 -0.005,-0.0193 -0.0147,-0.0307 v 0 -21.93084 c -0.0193,0.0734 -0.0437,0.14122 -0.0725,0.20389 m -15.80026,1.65046 c 0.008,-5.9e-4 0.0124,-0.005 0.0124,-0.0171 v 0 c -0.004,0.004 -0.008,0.0107 -0.0124,0.0171 m -0.002,2.2e-4 h 0.002 c 0,0 0,-2.2e-4 0,-2.2e-4 v 0 c 0,2.2e-4 -0.002,2.2e-4 -0.002,2.2e-4"
       style="fill:url(#linearGradient30);stroke:none;stroke-width:0.202658" />
    <path
       id="path35"
       d="m 193.50688,172.13074 c -2.59734,0.2929 -4.79131,1.50896 -6.58082,3.64767 v 0 c -1.78996,2.13869 -2.86512,4.80781 -3.22496,8.00832 v 0 0.12525 c -0.0487,0.44987 -0.0728,0.89958 -0.0728,1.34883 v 0 0.0627 0.0631 0.0627 c 0,0.27187 0.005,0.53855 0.0147,0.79998 v 0 c 0.21361,3.40937 1.23032,6.26443 3.04959,8.56515 v 0 l 0.0143,0.017 c 1.3134,1.66277 2.89363,2.82375 4.74221,3.48273 v 0 h 0.0147 c 0.67119,0.22978 1.36642,0.37673 2.08646,0.43927 v 0 c 0.0485,0.0112 0.0973,0.0196 0.14598,0.0307 v 0 c 0.41788,0.0306 0.88032,0.0306 1.38635,0 v 0 c 0.0972,-0.0109 0.1943,-0.0193 0.29159,-0.0307 v 0 c 0.44762,-0.0405 0.90963,-0.13052 1.38615,-0.26688 v 0 c 0.0391,-0.0109 0.0778,-0.0192 0.11669,-0.0303 v 0 l 0.0147,-0.017 h 0.0143 0.0147 c 0.009,0 0.0198,-0.004 0.0289,-0.017 v 0 c 0.0294,-0.0111 0.0534,-0.017 0.0733,-0.017 v 0 l 0.0143,-0.0173 h 0.0147 c 0.0285,-0.0111 0.0533,-0.0193 0.0728,-0.0307 v 0 c 0.0969,-0.0307 0.19448,-0.0628 0.29181,-0.0945 v 0 c 0.45733,-0.1775 0.89942,-0.39209 1.32789,-0.64301 v 0 c 1.55617,-0.91007 2.84519,-2.19103 3.8666,-3.84371 v 0 -0.0171 c 0.0971,-0.1463 0.1898,-0.29783 0.27734,-0.45495 v 0 c 0.18473,-0.34516 0.35986,-0.69513 0.52541,-1.05089 v 0 c 0.0485,-0.0734 0.0874,-0.15143 0.1165,-0.23522 v 0 c 0.01,-0.0307 0.0198,-0.0681 0.0294,-0.11016 v 0 c 0.0485,-0.24008 0.0221,-0.46753 -0.0805,-0.68229 v 0 c -0.10184,-0.214 -0.26018,-0.36835 -0.47399,-0.46254 v 0 c -0.39894,-0.13591 -0.73491,-0.0523 -1.00695,0.25085 v 0 0.0171 c -0.01,0 -0.0143,0.005 -0.0143,0.0171 v 0 c -0.0682,0.0734 -0.12178,0.16795 -0.16045,0.2824 v 0 c -0.0198,0.0405 -0.0345,0.0838 -0.0441,0.12561 v 0 0.0171 c -0.01,0.0405 -0.0462,0.17749 -0.10943,0.40755 v 0 c -0.0633,0.23042 -0.14837,0.51293 -0.25526,0.84747 v 0 c -0.0202,0.0522 -0.0437,0.10962 -0.0734,0.17228 v 0 c -0.63228,1.54805 -1.4348,2.77164 -2.40717,3.67119 v 0 c -0.97315,0.89938 -2.03325,1.34887 -3.18135,1.34887 v 0 c -1.10898,0 -2.13744,-0.42615 -3.08597,-1.27867 v 0 c -0.94814,-0.85221 -1.74614,-2.00794 -2.39292,-3.46688 v 0 c -0.64712,-1.45894 -1.08221,-3.12422 -1.3058,-4.99649 v 0 c 0,-0.0523 -0.005,-0.10442 -0.0147,-0.15664 v 0 c -0.01,-0.0836 -0.0147,-0.16733 -0.0147,-0.25098 v 0 c -0.01,-0.0838 -0.0198,-0.16715 -0.0285,-0.25097 v 0 c -0.0202,-0.28258 -0.0345,-0.57493 -0.0441,-0.87836 v 0 c 0,-0.0627 -0.005,-0.12572 -0.0143,-0.18863 v 0 -0.36056 -0.0472 -0.0472 -0.0621 -0.079 -0.15672 -0.0942 -0.17278 c 0,-0.52259 0.0143,-1.04541 0.0437,-1.56883 v 0 c 0.01,-0.15632 0.0243,-0.31346 0.0437,-0.47048 v 0 h 14.60644 0.97726 0.24819 v -0.15696 c 0,-0.0522 -0.005,-0.10397 -0.0147,-0.15665 v 0 -0.0306 -0.0171 c 0,-0.0524 -0.005,-0.10445 -0.0143,-0.15665 v 0 c -0.0101,-0.0411 -0.0147,-0.0734 -0.0147,-0.0945 v 0 c -0.01,-0.0627 -0.0198,-0.11984 -0.0294,-0.17226 v 0 -0.0174 c -0.51544,-2.79199 -1.59572,-5.12949 -3.23963,-7.01249 v 0 c -1.64354,-1.88213 -3.61838,-3.01158 -5.92394,-3.38794 v 0 c -0.40868,-0.0629 -0.82676,-0.0945 -1.25478,-0.0945 v 0 c -0.26271,0 -0.52068,0.0109 -0.77319,0.0306 m -3.15167,4.99652 c 0.67098,-1.59469 1.48817,-2.74243 2.45114,-3.443 v 0 c 0.57386,-0.41872 1.17702,-0.62788 1.80951,-0.62788 v 0 c 0.17513,0 0.35007,0.0173 0.52516,0.0469 v 0 c 0.34008,0.0631 0.67587,0.19399 1.00677,0.39209 v 0 c 0.1845,0.11524 0.3696,0.24603 0.55431,0.39224 v 0 c 1.84818,1.66296 3.03028,4.62247 3.54589,8.87909 v 0 h -11.24997 c 0.23339,-2.16498 0.68564,-4.04482 1.3572,-5.6397"
       style="fill:url(#linearGradient35);stroke:none;stroke-width:0.202658" />
    <path
       id="path40"
       d="m 50.208424,206.70239 c 0,0.94957 0.560957,1.53015 1.72449,2.11119 v 0 c 1.236216,0.61422 1.672445,1.03823 1.672445,1.87606 v 0 c 0,0.84874 -0.612914,1.49675 -1.412725,1.49675 v 0 c -0.747992,0 -1.599757,-0.46944 -1.98421,-1.51926 v 0 1.35159 c 0.519531,0.3906 1.204952,0.61398 1.932028,0.61398 v 0 c 1.14284,0 2.160901,-0.79282 2.160901,-2.1776 v 0 c 0,-1.27319 -0.924638,-1.7758 -1.828216,-2.23369 v 0 c -0.831071,-0.4247 -1.64141,-0.81529 -1.64141,-1.69785 v 0 c 0,-0.72579 0.498615,-1.39572 1.319297,-1.39572 v 0 c 0.654569,0 1.423069,0.43537 1.776448,1.29548 v 0 -1.20593 c -0.49857,-0.33504 -1.111536,-0.53604 -1.745182,-0.53604 v 0 c -1.080453,0 -1.973866,0.80373 -1.973866,2.02104"
       style="fill:url(#linearGradient40);stroke:none;stroke-width:0.202658" />
    <path
       id="path45"
       d="m 65.990306,204.81517 c 0,0 0.457008,0.0447 0.457008,1.03891 v 0 2.57956 H 62.54142 v -2.57956 c 0,-0.99413 0.457006,-1.03891 0.457006,-1.03891 v 0 h -1.651758 c 0,0 0.446899,0.0447 0.446899,1.03891 v 0 5.60609 c 0,1.00546 -0.446899,1.03868 -0.446899,1.03868 v 0 h 1.651758 c 0,0 -0.457006,-0.0333 -0.457006,-1.03868 v 0 -2.53501 h 3.905894 v 2.53501 c 0,1.00546 -0.457008,1.03868 -0.457008,1.03868 v 0 h 1.66192 c 0,0 -0.457007,-0.0448 -0.457007,-1.03868 v 0 -5.60609 c 0,-1.00565 0.446893,-1.03891 0.446893,-1.03891 v 0 z"
       style="fill:url(#linearGradient45);stroke:none;stroke-width:0.202658" />
    <path
       id="path50"
       d="m 79.352537,204.81517 c 0,0 0.456549,0.0333 0.456549,1.03891 v 0 4.03158 c 0,1.51902 -0.747992,2.23373 -1.859338,2.23373 v 0 c -1.256955,0 -1.900952,-0.84894 -1.900952,-2.26758 v 0 -4.03178 c 0,-0.96008 0.436321,-1.00486 0.436321,-1.00486 v 0 h -1.620495 c 0,0 0.43632,0.0333 0.43632,1.03891 v 0 3.99773 c 0,1.73132 0.924494,2.78089 2.586596,2.78089 v 0 c 1.485411,0 2.503517,-1.0162 2.503517,-2.80314 v 0 -3.97548 c 0,-0.99413 0.457013,-1.03891 0.457013,-1.03891 v 0 z"
       style="fill:url(#linearGradient50);stroke:none;stroke-width:0.202658" />
    <path
       id="path55"
       d="m 87.468049,204.81517 -0.145421,1.11686 c 0.166342,-0.35747 0.540225,-0.6701 1.194592,-0.6701 v 0 h 1.038628 v 6.19824 c 0,1.02755 -0.446618,1.03868 -0.446618,1.03868 v 0 h 1.651566 c 0,0 -0.456778,-0.0202 -0.456778,-1.03868 v 0 -6.19824 h 1.038624 c 0.654565,0 1.028267,0.3125 1.194596,0.6701 v 0 L 92.392,204.81517 Z"
       style="fill:url(#linearGradient55);stroke:none;stroke-width:0.202658" />
    <path
       id="path60"
       d="m 98.81398,204.81517 -0.145421,1.11686 c 0.166159,-0.35747 0.54042,-0.6701 1.194594,-0.6701 v 0 h 1.038817 v 6.19824 c 0,1.02755 -0.44661,1.03868 -0.44661,1.03868 v 0 h 1.65175 c 0,0 -0.45714,-0.0202 -0.45714,-1.03868 v 0 -6.19824 h 1.03881 c 0.65457,0 1.02847,0.3125 1.1946,0.6701 v 0 l -0.14542,-1.11686 z"
       style="fill:url(#linearGradient60);stroke:none;stroke-width:0.202658" />
    <path
       id="path65"
       d="m 110.55492,204.81517 c 0,0 0.44662,0.0559 0.44662,1.08323 v 0 5.48341 c 0,1.08382 -0.44662,1.11704 -0.44662,1.11704 v 0 h 3.91625 l 0.18685,-1.18366 c -0.18685,0.4127 -0.64421,0.73691 -1.28822,0.73691 v 0 h -1.62029 v -3.17213 h 1.79717 c 0.45678,0 0.64401,0.31303 0.64401,0.31303 v 0 -1.08324 c 0,0 -0.18726,0.324 -0.65456,0.324 v 0 h -1.78662 v -3.1717 h 1.44379 c 0.83106,0 1.04919,0.41322 1.12189,0.67009 v 0 -1.11686 z"
       style="fill:url(#linearGradient65);stroke:none;stroke-width:0.202658" />
    <path
       id="path70"
       d="m 121.65185,204.81517 c 0,0 0.44661,0.0333 0.44661,1.07211 v 0 5.58402 c 0,0.99433 -0.44661,1.02755 -0.44661,1.02755 v 0 h 1.65136 c 0,0 -0.45696,-0.0202 -0.45696,-1.02755 v 0 -6.20937 h 0.88324 c 1.06971,0 1.55795,0.87098 1.55795,1.69743 v 0 c 0,0.82644 -0.54004,1.67517 -1.54759,1.67517 v 0 h -0.62329 l 2.82524,3.86432 h 1.21571 c 0,0 -0.26993,-0.10025 -1.08045,-1.07208 v 0 l -1.82806,-2.50161 c 0.0207,0 0.14524,-0.0337 0.16616,-0.0337 v 0 c 1.01791,-0.25703 1.62029,-1.18412 1.62029,-2.06582 v 0 c 0,-0.99435 -0.61254,-2.01055 -2.32685,-2.01055 v 0 z"
       style="fill:url(#linearGradient70);stroke:none;stroke-width:0.202658" />
    <path
       id="path75"
       d="m 133.66292,206.70239 c 0,0.94957 0.56109,1.53015 1.72466,2.11119 v 0 c 1.2362,0.61422 1.67227,1.03823 1.67227,1.87606 v 0 c 0,0.84874 -0.61274,1.49675 -1.41255,1.49675 v 0 c -0.74817,0 -1.59975,-0.46944 -1.98438,-1.51926 v 0 1.35159 c 0.51952,0.3906 1.20514,0.61398 1.93222,0.61398 v 0 c 1.1428,0 2.1605,-0.79282 2.1605,-2.1776 v 0 c 0,-1.27319 -0.92425,-1.7758 -1.82804,-2.23369 v 0 c -0.83108,-0.4247 -1.64101,-0.81529 -1.64101,-1.69785 v 0 c 0,-0.72579 0.49838,-1.39572 1.31931,-1.39572 v 0 c 0.65416,0 1.4233,0.43537 1.77625,1.29548 v 0 -1.20593 c -0.4988,-0.33504 -1.11133,-0.53604 -1.74539,-0.53604 v 0 c -1.08026,0 -1.97384,0.80373 -1.97384,2.02104"
       style="fill:url(#linearGradient75);stroke:none;stroke-width:0.202658" />
    <path
       id="path85"
       d="m 105.05532,26.907247 c -0.10262,0.0033 -0.20561,0.0033 -0.30823,0.0048 v 0 c -2.54711,0.07336 -5.042243,0.372025 -7.471308,0.873942 v 0 c -0.72493,0.149887 -1.443798,0.317726 -2.156411,0.503673 v 0 c -2.627645,0.685473 -5.167923,1.613201 -7.599338,2.760737 v 0 c -0.739776,0.348992 -1.469397,0.717597 -2.188261,1.106732 v 0 C 72.810571,38.931569 63.53704,51.659677 60.746584,66.862659 v 0 c -0.155403,0.846629 -0.290114,1.700815 -0.404597,2.562127 v 0 c -0.306663,2.304929 -0.468685,4.659473 -0.468685,7.054314 v 0 1.561506 2.391282 8.205416 2.37807 49.373906 H 152.11561 V 91.015148 88.637295 80.431863 78.040587 76.479092 c 0,-2.394844 -0.16202,-4.749383 -0.46851,-7.054315 v 0 c -0.1149,-0.86131 -0.24956,-1.715507 -0.40492,-2.562124 v 0 C 148.45151,51.66032 139.17814,38.932461 126.65715,32.158046 v 0 c -0.71887,-0.389128 -1.44868,-0.757962 -2.18808,-1.106943 v 0 c -2.4316,-1.147191 -4.97168,-2.075143 -7.59932,-2.76063 v 0 c -0.71262,-0.186135 -1.43149,-0.353606 -2.15661,-0.503471 v 0 c -2.42907,-0.501771 -4.92439,-0.800992 -7.47171,-0.873918 v 0 c -0.1022,-0.0033 -0.20542,-0.0033 -0.30804,-0.0048 v 0 c -0.31232,-0.0067 -0.62486,-0.01232 -0.93875,-0.01232 v 0 c -0.31388,0 -0.62642,0.0066 -0.93914,0.01232 m 2.02995,4.43946 c 0,-0.700163 0.0157,-1.396534 0.0386,-2.090807 v 0 c 2.55455,0.06966 5.05476,0.377105 7.48402,0.89832 v 0 c -0.009,0.396409 -0.0143,0.793641 -0.0143,1.192487 v 0 c 0,23.438652 15.07006,43.161193 35.33971,48.564296 v 0 8.282724 C 125.48789,82.634755 107.08519,59.25912 107.08519,31.34673 M 62.05481,79.911036 C 82.32447,74.508143 97.394925,54.785397 97.394925,31.34673 v 0 c 0,-0.398884 -0.0055,-0.795988 -0.01427,-1.192482 v 0 c 2.429262,-0.521144 4.929275,-0.828781 7.483625,-0.898323 v 0 c 0.023,0.694288 0.0386,1.39066 0.0386,2.090805 v 0 c 0,27.91239 -18.402893,51.288025 -42.848341,56.847027 v 0 z m 54.72105,-48.564353 c 0,-0.221577 0.005,-0.442341 0.008,-0.663595 v 0 c 2.68901,0.732494 5.27913,1.73357 7.74611,2.972938 v 0 c 0.87992,16.291052 11.00169,29.958593 24.79977,35.014823 v 0 c 0.39499,2.541304 0.60396,5.149442 0.60396,7.809515 v 0 1.012193 C 130.87937,72.144791 116.77582,53.48365 116.77582,31.346718 M 62.054758,76.480191 c 0,-2.660069 0.209189,-5.268208 0.603946,-7.809517 v 0 C 76.456607,63.614468 86.578824,49.946903 87.458746,33.65626 v 0 c 2.466983,-1.239326 5.057295,-2.240385 7.746311,-2.973136 v 0 c 0.0028,0.221082 0.0078,0.441719 0.0078,0.663594 v 0 c 0,22.13713 -14.10375,40.798073 -33.157886,46.145683 v 0 z m 64.750432,-41.5957 c 10.99527,6.384202 19.18644,17.660876 22.03319,31.098789 v 0 C 136.85626,61.051511 128.06546,49.130968 126.80519,34.884491 m -41.621887,0 C 83.922799,49.131174 75.132204,61.051715 63.149876,65.98328 v 0 C 65.99684,52.545367 74.187803,41.26889 85.183303,34.884491 m 3.519685,41.131103 C 97.397235,67.49392 103.60125,56.08544 105.99415,43.215582 v 0 c 2.39291,12.869858 8.59692,24.278117 17.29116,32.799785 v 0 62.029093 H 88.702988 Z m 36.764342,2.031322 c 1.43539,1.269405 2.93098,2.462567 4.47995,3.576654 v 0 56.42089 h -4.47995 z M 82.041021,81.62357 c 1.548955,-1.114087 3.044558,-2.307249 4.480145,-3.576654 v 0 59.997544 h -4.480145 z m 50.088249,1.493838 c 1.45202,0.943694 2.9466,1.818255 4.48014,2.620729 v 0 52.306323 h -4.48014 z m -56.750217,2.620729 c 1.533324,-0.802474 3.027931,-1.677035 4.479962,-2.620533 v 0 54.926856 h -4.479962 z m 63.412357,1.077576 c 1.46255,0.683552 2.9564,1.30407 4.47994,1.854194 v 0 49.374553 h -4.47994 z m -70.074507,1.854194 c 1.523758,-0.550124 3.017404,-1.170642 4.479968,-1.854194 v 0 51.228747 h -4.479968 z m 76.736247,0.733141 c 1.47002,0.459607 2.9638,0.857755 4.48037,1.188504 v 0 47.452908 h -4.48037 z m -83.398392,1.188504 c 1.516539,-0.330785 3.010361,-0.728897 4.479962,-1.188504 v 0 48.641412 h -4.479962 z"
       style="fill:url(#linearGradient85);stroke:none;stroke-width:0.202658" />
    <path
       id="path90"
       d="m 105.12197,72.093691 -11.464575,0.937818 11.464575,0.937803 V 93.58089 l -11.464575,0.93781 11.464575,0.937804 v 19.611386 l -11.464575,0.938 11.464575,0.93805 0.8723,12.32565 0.87229,-12.32565 11.46477,-0.93805 -11.46477,-0.938 V 95.456504 L 118.33133,94.5187 106.86656,93.58089 V 73.969312 l 11.46477,-0.937803 -11.46477,-0.937818 -0.87229,-12.326106 z"
       style="fill:url(#linearGradient90);stroke:none;stroke-width:0.202658" />
  </g>
</svg>
